<svg width="24" height="24" viewBox="0 0 24 24" fill="none" xmlns="http://www.w3.org/2000/svg">
<path fill-rule="evenodd" clip-rule="evenodd" d="M12 24C15.1826 24 18.2348 22.7357 20.4853 20.4853C22.7357 18.2348 24 15.1826 24 12C24 8.8174 22.7357 5.76516 20.4853 3.51472C18.2348 1.26428 15.1826 0 12 0C8.8174 0 5.76516 1.26428 3.51472 3.51472C1.26428 5.76516 0 8.8174 0 12C0 15.1826 1.26428 18.2348 3.51472 20.4853C5.76516 22.7357 8.8174 24 12 24ZM10.0605 7.9395C9.7776 7.66626 9.39869 7.51507 9.0054 7.51849C8.6121 7.52191 8.23588 7.67966 7.95777 7.95777C7.67966 8.23588 7.52191 8.6121 7.51849 9.0054C7.51507 9.39869 7.66626 9.7776 7.9395 10.0605L9.879 12L7.9395 13.9395C7.79624 14.0779 7.68196 14.2434 7.60335 14.4264C7.52473 14.6094 7.48336 14.8062 7.48162 15.0054C7.47989 15.2046 7.51785 15.4021 7.59327 15.5864C7.66869 15.7708 7.78007 15.9383 7.92091 16.0791C8.06175 16.2199 8.22922 16.3313 8.41357 16.4067C8.59791 16.4822 8.79543 16.5201 8.9946 16.5184C9.19377 16.5166 9.3906 16.4753 9.57361 16.3967C9.75661 16.318 9.92213 16.2038 10.0605 16.0605L12 14.121L13.9395 16.0605C14.2224 16.3337 14.6013 16.4849 14.9946 16.4815C15.3879 16.4781 15.7641 16.3203 16.0422 16.0422C16.3203 15.7641 16.4781 15.3879 16.4815 14.9946C16.4849 14.6013 16.3337 14.2224 16.0605 13.9395L14.121 12L16.0605 10.0605C16.3337 9.7776 16.4849 9.39869 16.4815 9.0054C16.4781 8.6121 16.3203 8.23588 16.0422 7.95777C15.7641 7.67966 15.3879 7.52191 14.9946 7.51849C14.6013 7.51507 14.2224 7.66626 13.9395 7.9395L12 9.879L10.0605 7.9395Z" fill="black"/>
</svg>
