<svg width="24" height="24" viewBox="0 0 24 24" fill="none" xmlns="http://www.w3.org/2000/svg">
<path d="M6.85715 10.2857C6.85715 9.3764 7.21837 8.50433 7.86135 7.86135C8.50433 7.21837 9.3764 6.85715 10.2857 6.85715H20.5714C21.4807 6.85715 22.3528 7.21837 22.9958 7.86135C23.6388 8.50433 24 9.3764 24 10.2857V20.5714C24 21.4807 23.6388 22.3528 22.9958 22.9958C22.3528 23.6388 21.4807 24 20.5714 24H10.2857C9.3764 24 8.50433 23.6388 7.86135 22.9958C7.21837 22.3528 6.85715 21.4807 6.85715 20.5714V10.2857Z" fill="black"/>
<path d="M3.42857 0C2.51926 0 1.64719 0.361223 1.00421 1.00421C0.361223 1.64719 0 2.51926 0 3.42857V13.7143C0 14.6236 0.361223 15.4957 1.00421 16.1387C1.64719 16.7816 2.51926 17.1429 3.42857 17.1429V6.42857C3.42857 4.77172 4.77172 3.42857 6.42857 3.42857H17.1429C17.1429 2.51926 16.7816 1.64719 16.1387 1.00421C15.4957 0.361223 14.6236 0 13.7143 0H3.42857Z" fill="black"/>
</svg>
