<svg width="128" height="56" viewBox="0 0 128 56" fill="none" xmlns="http://www.w3.org/2000/svg">
<g clip-path="url(#clip0_98_40736)">
<path d="M7.21872 13.1758C7.74264 12.2032 8.49876 11.374 9.42039 10.7614L24.8876 0L9.03957 26.1102C9.03957 26.1102 7.65487 23.7787 7.11483 22.5989C6.44187 21.1156 6.10247 19.5037 6.1204 17.876C6.13834 16.2482 6.51322 14.6441 7.21872 13.1758ZM0.835199 31.1874C1.00983 33.6843 1.71788 36.1152 2.91192 38.3173C4.10597 40.5196 5.75845 42.442 7.75872 43.9562L24.8667 55.8421C24.8667 55.8421 14.163 40.4726 5.13471 25.179C4.22068 23.5632 3.60622 21.7966 3.32074 19.9638C3.19436 19.1339 3.19436 18.2896 3.32074 17.4597C3.08534 17.8944 2.62839 18.7842 2.62839 18.7842C1.71296 20.6444 1.08951 22.6336 0.779811 24.6823C0.601554 26.8479 0.620092 29.0251 0.835199 31.1874ZM44.4534 33.2568C43.8994 32.0772 42.5286 29.7456 42.5286 29.7456L26.7084 55.8421L42.1755 45.0875C43.0971 44.4749 43.8533 43.6459 44.3773 42.6732C45.0827 41.2049 45.4575 39.6007 45.4756 37.9731C45.4935 36.3454 45.1541 34.7333 44.4811 33.25L44.4534 33.2568ZM50.7329 24.6615C50.5583 22.1647 49.8503 19.7337 48.6563 17.5316C47.4622 15.3295 45.8097 13.4069 43.8094 11.8927L26.7291 0C26.7291 0 37.4259 15.3695 46.4612 30.6631C47.3728 32.2794 47.9848 34.046 48.2682 35.8782C48.3946 36.7082 48.3946 37.5524 48.2682 38.3824C48.5037 37.9477 48.9606 37.0578 48.9606 37.0578C49.876 35.1977 50.4995 33.2085 50.8091 31.1597C50.9897 28.9943 50.9735 26.8172 50.7608 24.6547L50.7329 24.6615Z" fill="#1E2122"/>
<path d="M79.1021 39.6098V35.1263H68.5488V29.4703H78.1019V25.2283H68.5488V19.6413H79.1021V15.1579H63.7895V39.6098H79.1021Z" fill="#1E2122"/>
<path d="M104.627 39.6098V15.1579H99.8672V31.3327L89.6933 15.1579H83.7614V39.6098H88.5207V22.2624L99.6258 39.6098H104.627Z" fill="#1E2122"/>
<path d="M126.853 20.9863C126.302 18.2273 124.025 14.6406 118.093 14.6406C113.472 14.6406 109.575 17.9514 109.575 22.2969C109.575 25.9871 112.093 28.5047 115.99 29.2979L119.404 29.9877C121.301 30.367 122.37 31.4706 122.37 32.8846C122.37 34.609 120.956 35.8851 118.404 35.8851C114.955 35.8851 113.265 33.7123 113.058 31.2982L108.644 32.4708C109.023 35.954 111.886 40.1271 118.369 40.1271C124.06 40.1271 127.198 36.3334 127.198 32.5742C127.198 29.1255 124.819 26.2285 120.37 25.3663L116.955 24.711C115.162 24.3661 114.3 23.297 114.3 21.952C114.3 20.3311 115.817 18.8481 118.128 18.8481C121.232 18.8481 122.335 20.9519 122.577 22.2969L126.853 20.9863Z" fill="#1E2122"/>
</g>
<defs>
<clipPath id="clip0_98_40736">
<rect width="126.683" height="56" fill="white" transform="translate(0.658691)"/>
</clipPath>
</defs>
</svg>
