<svg width="52" height="56" viewBox="0 0 52 56" fill="none" xmlns="http://www.w3.org/2000/svg">
<g clip-path="url(#clip0_98_40753)">
<path d="M7.37692 13.1758C7.90084 12.2032 8.65696 11.374 9.57859 10.7614L25.0458 0L9.19777 26.1102C9.19777 26.1102 7.81307 23.7787 7.27303 22.5989C6.60007 21.1156 6.26067 19.5037 6.2786 17.876C6.29655 16.2482 6.67142 14.6441 7.37692 13.1758ZM0.993402 31.1874C1.16804 33.6843 1.87608 36.1152 3.07013 38.3173C4.26417 40.5196 5.91665 42.442 7.91693 43.9562L25.0249 55.8421C25.0249 55.8421 14.3212 40.4726 5.29292 25.179C4.37889 23.5632 3.76442 21.7966 3.47894 19.9638C3.35257 19.1339 3.35257 18.2896 3.47894 17.4597C3.24354 17.8944 2.78659 18.7842 2.78659 18.7842C1.87116 20.6444 1.24771 22.6336 0.938015 24.6823C0.759757 26.8479 0.778296 29.0251 0.993402 31.1874ZM44.6116 33.2568C44.0576 32.0772 42.6868 29.7456 42.6868 29.7456L26.8666 55.8421L42.3337 45.0875C43.2553 44.4749 44.0115 43.6459 44.5355 42.6732C45.2409 41.2049 45.6157 39.6007 45.6338 37.9731C45.6517 36.3454 45.3123 34.7333 44.6393 33.25L44.6116 33.2568ZM50.8911 24.6615C50.7165 22.1647 50.0085 19.7337 48.8145 17.5316C47.6204 15.3295 45.9679 13.4069 43.9676 11.8927L26.8873 0C26.8873 0 37.5841 15.3695 46.6194 30.6631C47.531 32.2794 48.143 34.046 48.4265 35.8782C48.5528 36.7082 48.5528 37.5524 48.4265 38.3824C48.6619 37.9477 49.1188 37.0578 49.1188 37.0578C50.0342 35.1977 50.6577 33.2085 50.9673 31.1597C51.1479 28.9943 51.1317 26.8172 50.919 24.6547L50.8911 24.6615Z" fill="#1E2122"/>
</g>
<defs>
<clipPath id="clip0_98_40753">
<rect width="50.3659" height="56" fill="white" transform="translate(0.816895)"/>
</clipPath>
</defs>
</svg>
