<svg width="109" height="48" viewBox="0 0 109 48" fill="none" xmlns="http://www.w3.org/2000/svg">
<g clip-path="url(#clip0_43_833)">
<path d="M5.61846 11.2936C6.06718 10.4599 6.71478 9.74915 7.50412 9.22406L20.7513 0L7.17796 22.3801C7.17796 22.3801 5.99201 20.3817 5.52948 19.3705C4.95311 18.0991 4.66243 16.7175 4.67778 15.3222C4.69315 13.927 5.01422 12.5521 5.61846 11.2936ZM0.151173 26.732C0.300742 28.8723 0.907161 30.9559 1.92982 32.8434C2.95249 34.7311 4.36778 36.3789 6.08096 37.6768L20.7334 47.8646C20.7334 47.8646 11.566 34.6908 3.83357 21.582C3.05074 20.197 2.52447 18.6828 2.27996 17.1119C2.17173 16.4005 2.17173 15.6768 2.27996 14.9655C2.07835 15.338 1.68699 16.1008 1.68699 16.1008C0.902947 17.6952 0.368979 19.4002 0.103736 21.1563C-0.0489361 23.0125 -0.0330588 24.8786 0.151173 26.732ZM37.5088 28.5059C37.0343 27.4948 35.8603 25.4962 35.8603 25.4962L22.3108 47.8646L35.5579 38.6464C36.3472 38.1214 36.9948 37.4107 37.4436 36.577C38.0478 35.3185 38.3688 33.9435 38.3843 32.5484C38.3996 31.1532 38.1089 29.7714 37.5325 28.5L37.5088 28.5059ZM42.887 21.1384C42.7374 18.9983 42.1311 16.9146 41.1085 15.0271C40.0858 13.1395 38.6705 11.4917 36.9573 10.1938L22.3285 0C22.3285 0 31.49 13.1739 39.2285 26.2826C40.0092 27.668 40.5334 29.1822 40.7761 30.7528C40.8843 31.4641 40.8843 32.1878 40.7761 32.8992C40.9778 32.5266 41.3691 31.7639 41.3691 31.7639C42.1531 30.1695 42.6871 28.4644 42.9523 26.7083C43.107 24.8523 43.0931 22.9861 42.9109 21.1326L42.887 21.1384Z" fill="url(#paint0_linear_43_833)"/>
<path d="M67.1843 33.9512V30.1083H58.1458V25.2603H66.3277V21.6243H58.1458V16.8354H67.1843V12.9925H54.0696V33.9512H67.1843Z" fill="url(#paint1_linear_43_833)"/>
<path d="M89.0452 33.9512V12.9925H84.969V26.8566L76.2554 12.9925H71.1749V33.9512H75.2511V19.082L84.7623 33.9512H89.0452Z" fill="url(#paint2_linear_43_833)"/>
<path d="M108.082 17.9883C107.609 15.6234 105.66 12.5491 100.579 12.5491C96.6212 12.5491 93.2834 15.3869 93.2834 19.1116C93.2834 22.2746 95.4397 24.4326 98.7775 25.1125L101.702 25.7037C103.326 26.0289 104.242 26.9748 104.242 28.1868C104.242 29.6649 103.031 30.7586 100.845 30.7586C97.8913 30.7586 96.444 28.8963 96.2668 26.827L92.4859 27.8321C92.8108 30.8178 95.2625 34.3946 100.816 34.3946C105.689 34.3946 108.377 31.1429 108.377 27.9208C108.377 24.9647 106.339 22.4816 102.529 21.7425L99.6045 21.1809C98.0686 20.8853 97.3301 19.9689 97.3301 18.816C97.3301 17.4266 98.6298 16.1555 100.609 16.1555C103.267 16.1555 104.212 17.9587 104.419 19.1116L108.082 17.9883Z" fill="url(#paint3_linear_43_833)"/>
</g>
<defs>
<linearGradient id="paint0_linear_43_833" x1="72.1883" y1="53.5375" x2="46.6197" y2="-48.3632" gradientUnits="userSpaceOnUse">
<stop stop-color="#44BCF0"/>
<stop offset="0.378795" stop-color="#7298F8"/>
<stop offset="1" stop-color="#A099FF"/>
</linearGradient>
<linearGradient id="paint1_linear_43_833" x1="72.1883" y1="53.5375" x2="46.6197" y2="-48.3632" gradientUnits="userSpaceOnUse">
<stop stop-color="#44BCF0"/>
<stop offset="0.378795" stop-color="#7298F8"/>
<stop offset="1" stop-color="#A099FF"/>
</linearGradient>
<linearGradient id="paint2_linear_43_833" x1="72.1883" y1="53.5375" x2="46.6197" y2="-48.3632" gradientUnits="userSpaceOnUse">
<stop stop-color="#44BCF0"/>
<stop offset="0.378795" stop-color="#7298F8"/>
<stop offset="1" stop-color="#A099FF"/>
</linearGradient>
<linearGradient id="paint3_linear_43_833" x1="72.1883" y1="53.5375" x2="46.6197" y2="-48.3632" gradientUnits="userSpaceOnUse">
<stop stop-color="#44BCF0"/>
<stop offset="0.378795" stop-color="#7298F8"/>
<stop offset="1" stop-color="#A099FF"/>
</linearGradient>
<clipPath id="clip0_43_833">
<rect width="108.5" height="48" fill="white"/>
</clipPath>
</defs>
</svg>
