<svg viewBox="0 0 24 24" fill="none" xmlns="http://www.w3.org/2000/svg">
<path d="M8.03044 24C10.2552 24 12.0609 22.208 12.0609 20V16H8.03044C5.80564 16 4 17.792 4 20C4 22.208 5.80564 24 8.03044 24Z" fill="#0ACF83"/>
<path d="M4 12C4 9.792 5.80564 8 8.03044 8H12.0609V16H8.03044C5.80564 16 4 14.208 4 12Z" fill="#A259FF"/>
<path d="M4.00008 4C4.00008 1.792 5.80572 0 8.03052 0H12.061V8H8.03052C5.80572 8 4.00008 6.208 4.00008 4Z" fill="#F24E1E"/>
<path d="M12.0609 0H16.0913C18.3161 0 20.1218 1.792 20.1218 4C20.1218 6.208 18.3161 8 16.0913 8H12.0609V0Z" fill="#FF7262"/>
<path d="M20.1218 12C20.1218 14.208 18.3161 16 16.0913 16C13.8665 16 12.0609 14.208 12.0609 12C12.0609 9.792 13.8665 8 16.0913 8C18.3161 8 20.1218 9.792 20.1218 12Z" fill="#1ABCFE"/>
</svg>
