<svg width="24" height="24" viewBox="0 0 24 24" fill="none" xmlns="http://www.w3.org/2000/svg">
<path d="M4.00058 9.70969C4.23776 10.2167 4.82477 11.2188 4.82477 11.2188L11.611 0L4.98783 4.62508C4.59318 4.88836 4.2694 5.24473 4.04505 5.66275C3.7434 6.29338 3.58313 6.98229 3.57545 7.68131C3.56777 8.38033 3.71286 9.07259 4.00058 9.70969Z" fill="#5298FF"/>
<path d="M1.31159 13.4038C1.38637 14.477 1.68956 15.5217 2.20086 16.4682C2.71216 17.4146 3.41976 18.2409 4.27629 18.8917L11.6021 24C11.6021 24 7.01863 17.3944 3.15267 10.8215C2.76128 10.1271 2.49816 9.36782 2.37592 8.58011C2.3218 8.22341 2.3218 7.86059 2.37592 7.50389C2.27512 7.69068 2.07945 8.07313 2.07945 8.07313C1.68745 8.87262 1.42049 9.72754 1.28787 10.608C1.21154 11.5388 1.21948 12.4745 1.31159 13.4038Z" fill="#5298FF"/>
<path d="M20.0011 14.2903C19.7639 13.7833 19.1769 12.7812 19.1769 12.7812L12.3907 24L19.0138 19.3779C19.4085 19.1146 19.7322 18.7582 19.9566 18.3402C20.2587 17.7092 20.4192 17.0198 20.4269 16.3202C20.4346 15.6206 20.2892 14.9278 20.0011 14.2903Z" fill="#5298FF"/>
<path d="M22.69 10.5962C22.6153 9.52304 22.3121 8.47827 21.8008 7.53183C21.2895 6.58539 20.5819 5.75911 19.7253 5.10834L12.3996 0C12.3996 0 16.98 6.60556 20.849 13.1785C21.2393 13.8731 21.5014 14.6324 21.6227 15.4199C21.6769 15.7766 21.6769 16.1394 21.6227 16.4961C21.7235 16.3093 21.9192 15.9269 21.9192 15.9269C22.3112 15.1274 22.5782 14.2725 22.7108 13.392C22.7881 12.4613 22.7812 11.5256 22.69 10.5962Z" fill="#5298FF"/>
<path d="M4.04505 5.66275C4.2694 5.24473 4.59318 4.88836 4.98783 4.62508L11.611 0L4.82476 11.2217C4.82476 11.2217 4.23182 10.2196 4.00057 9.71266C3.7124 9.07515 3.56707 8.38236 3.57475 7.68278C3.58243 6.98321 3.74296 6.29378 4.04505 5.66275ZM1.31159 13.4038C1.38637 14.477 1.68956 15.5217 2.20086 16.4682C2.71216 17.4146 3.41976 18.2409 4.27629 18.8917L11.6021 24C11.6021 24 7.01863 17.3944 3.15267 10.8215C2.76128 10.1271 2.49816 9.36782 2.37592 8.58011C2.3218 8.22341 2.3218 7.86059 2.37592 7.50389C2.27512 7.69068 2.07945 8.07313 2.07945 8.07313C1.68745 8.87262 1.42049 9.72754 1.28787 10.608C1.21154 11.5388 1.21948 12.4745 1.31159 13.4038ZM19.9892 14.2933C19.752 13.7863 19.165 12.7842 19.165 12.7842L12.3907 24L19.0138 19.3779C19.4085 19.1146 19.7322 18.7582 19.9566 18.3402C20.2587 17.7092 20.4192 17.0198 20.4269 16.3202C20.4346 15.6206 20.2892 14.9278 20.0011 14.2903L19.9892 14.2933ZM22.6782 10.5991C22.6034 9.526 22.3002 8.48124 21.7889 7.53479C21.2776 6.58835 20.57 5.76208 19.7135 5.1113L12.3996 0C12.3996 0 16.98 6.60556 20.849 13.1785C21.2393 13.8731 21.5014 14.6324 21.6227 15.4199C21.6769 15.7766 21.6769 16.1394 21.6227 16.4961C21.7235 16.3093 21.9192 15.9269 21.9192 15.9269C22.3112 15.1274 22.5782 14.2725 22.7108 13.392C22.7881 12.4613 22.7812 11.5256 22.69 10.5962L22.6782 10.5991Z" fill="#5298FF"/>
</svg>
