<svg fill="none" xmlns="http://www.w3.org/2000/svg" viewBox="0 0 194 194">
    <g filter="url(#a)">
        <path
            d="M168 93c0 39.212-31.788 71-71 71-39.2122 0-71-31.788-71-71 0-39.2122 31.7878-71 71-71 39.212 0 71 31.7878 71 71Z"
            fill="url(#b)" />
    </g>
    <path
        d="M66.5303 84.8159c.9034 1.9223 3.1393 5.7219 3.1393 5.7219L95.5182 48 70.2907 65.5367c-1.5032.9983-2.7365 2.3496-3.5911 3.9346-1.1489 2.3911-1.7594 5.0032-1.7887 7.6537-.0292 2.6504.5234 5.2752 1.6194 7.6909ZM56.2879 98.8229c.2848 4.0691 1.4397 8.0301 3.3872 11.6191 1.9475 3.588 4.6428 6.721 7.9053 9.189L95.4842 139S78.026 113.954 63.3005 89.0315c-1.4908-2.633-2.493-5.5118-2.9586-8.4986-.2061-1.3525-.2061-2.7282 0-4.0806-.3839.7082-1.1292 2.1583-1.1292 2.1583-1.4932 3.0314-2.51 6.273-3.0151 9.6115-.2908 3.5291-.2606 7.0771.0903 10.6008ZM127.476 102.184c-.903-1.922-3.139-5.7218-3.139-5.7218L98.4881 139l25.2279-17.525c1.503-.999 2.736-2.35 3.591-3.935 1.15-2.393 1.762-5.007 1.791-7.659.029-2.653-.524-5.28-1.622-7.697ZM137.718 88.1771c-.285-4.0689-1.439-8.0303-3.387-11.6189-1.947-3.5886-4.643-6.7216-7.905-9.1891L98.5219 48s17.4471 25.0461 32.1841 49.9685c1.486 2.6335 2.485 5.5125 2.947 8.4985.206 1.353.206 2.728 0 4.081.384-.708 1.129-2.159 1.129-2.159 1.493-3.031 2.51-6.273 3.015-9.6111.295-3.5288.268-7.0768-.079-10.6008Z"
        fill="#fff" />
    <path
        d="M66.6996 69.4713c.8546-1.585 2.0879-2.9363 3.5911-3.9346L95.5182 48 69.6695 90.5491s-2.2585-3.7996-3.1393-5.7219c-1.0976-2.4172-1.6512-5.0441-1.6219-7.6966.0292-2.6526.6407-5.2667 1.7913-7.6593ZM56.2879 98.8229c.2848 4.0691 1.4397 8.0301 3.3872 11.6191 1.9475 3.588 4.6428 6.721 7.9053 9.189L95.4842 139S78.026 113.954 63.3005 89.0315c-1.4908-2.633-2.493-5.5118-2.9586-8.4986-.2061-1.3525-.2061-2.7282 0-4.0806-.3839.7082-1.1292 2.1583-1.1292 2.1583-1.4932 3.0314-2.51 6.273-3.0151 9.6115-.2908 3.5291-.2606 7.0771.0903 10.6008Zm71.1431 3.3721c-.904-1.922-3.14-5.7216-3.14-5.7216L98.4881 139l25.2279-17.525c1.503-.999 2.736-2.35 3.591-3.935 1.15-2.393 1.762-5.007 1.791-7.659.029-2.653-.524-5.28-1.622-7.697l-.045.011Zm10.242-14.0066c-.285-4.069-1.44-8.0304-3.387-11.619-1.948-3.5886-4.643-6.7215-7.905-9.1891L98.5219 48s17.4471 25.0461 32.1841 49.9685c1.486 2.6335 2.485 5.5125 2.947 8.4985.206 1.353.206 2.728 0 4.081.384-.708 1.129-2.159 1.129-2.159 1.493-3.031 2.51-6.273 3.015-9.6111.295-3.5288.268-7.0768-.079-10.6008l-.045.0113Z"
        fill="#fff" />
    <defs>
        <linearGradient id="b" x1="120.584" y1="180.83" x2="-17.4333" y2="-62.0994" gradientUnits="userSpaceOnUse">
            <stop stop-color="#44BCF0" />
            <stop offset=".378795" stop-color="#7298F8" />
            <stop offset="1" stop-color="#A099FF" />
        </linearGradient>
        <filter id="a" x="0" y="0" width="194" height="194" filterUnits="userSpaceOnUse"
            color-interpolation-filters="sRGB">
            <feFlood flood-opacity="0" result="BackgroundImageFix" />
            <feColorMatrix in="SourceAlpha" values="0 0 0 0 0 0 0 0 0 0 0 0 0 0 0 0 0 0 127 0" result="hardAlpha" />
            <feOffset dy="4" />
            <feGaussianBlur stdDeviation="13" />
            <feComposite in2="hardAlpha" operator="out" />
            <feColorMatrix values="0 0 0 0 0 0 0 0 0 0 0 0 0 0 0 0 0 0 0.06 0" />
            <feBlend in2="BackgroundImageFix" result="effect1_dropShadow_361:174" />
            <feBlend in="SourceGraphic" in2="effect1_dropShadow_361:174" result="shape" />
        </filter>
    </defs>
</svg>