<svg xmlns="http://www.w3.org/2000/svg" fill="currentColor" viewBox="0 0 96 96">
  <path fill="#000" fill-rule="evenodd" d="M4.5 23.225C1.173 12.416 12.09 2.703 22.438 7.264l65.03 28.657c10.502 4.628 10.502 19.53 0 24.158l-65.03 28.657c-10.348 4.56-21.265-5.153-17.94-15.96L12.122 48 4.5 23.225ZM22.83 54l-6.86 22.304c-.303.983.69 1.866 1.63 1.451l65.03-28.657c.31-.136.454-.297.541-.437.102-.166.175-.395.175-.661s-.073-.495-.175-.661c-.087-.14-.232-.301-.54-.437L17.6 18.245c-.941-.415-1.934.468-1.631 1.45L22.83 42h21.72a6 6 0 0 1 0 12H22.83Z" clip-rule="evenodd"/>
</svg>
