<svg xmlns="http://www.w3.org/2000/svg" fill="currentColor" viewBox="0 0 120 120">
  <path fill="#000" fill-rule="evenodd" d="M108.731 46.274c11.935 5.26 11.935 22.193 0 27.452l-81.288 35.822C15.684 114.73 3.28 103.692 7.058 91.41L16.722 60 7.058 28.59c-3.78-12.282 8.626-23.32 20.385-18.138l81.288 35.822ZM27.431 66l-8.904 28.94c-.756 2.456 1.725 4.663 4.077 3.627l81.288-35.822c2.387-1.052 2.387-4.438 0-5.49L22.604 21.433c-2.352-1.036-4.833 1.171-4.077 3.628L27.431 54h28.257a6 6 0 0 1 0 12H27.431Z" clip-rule="evenodd"/>
</svg>
