<svg viewBox="0 0 24 24" fill="none" xmlns="http://www.w3.org/2000/svg">
  <path fill-rule="evenodd" clip-rule="evenodd"
    d="M8.67189 2.89631C10.1562 0.367896 13.8438 0.367896 15.3281 2.89631L23.4693 16.7715C24.9833 19.3505 23.0661 22.5 20.1412 22.5H3.85878C0.934016 22.5 -0.983164 19.3507 0.530497 16.7718L8.67189 2.89631ZM11.2575 4.41565L3.11646 18.2906C2.82077 18.7942 3.1643 19.5 3.85878 19.5H20.1412C20.8357 19.5 21.1794 18.7945 20.8837 18.2909L12.7425 4.41565C12.4171 3.86186 11.5829 3.86186 11.2575 4.41565ZM12 7.93732C12.828 7.93732 13.4993 8.60889 13.4993 9.43732V11.7499C13.4993 12.5783 12.828 13.2499 12 13.2499C11.172 13.2499 10.5007 12.5783 10.5007 11.7499V9.43732C10.5007 8.60889 11.172 7.93732 12 7.93732ZM10.5007 16.3749C10.5007 15.5465 11.172 14.8749 12 14.8749H12.0118C12.8398 14.8749 13.511 15.5465 13.511 16.3749C13.511 17.2034 12.8398 17.8749 12.0118 17.8749H12C11.172 17.8749 10.5007 17.2034 10.5007 16.3749Z"
    fill="currentColor" />
</svg>