<svg xmlns="http://www.w3.org/2000/svg" fill="currentColor" viewBox="0 0 96 96">
  <path fill="#000" d="M48 30a6 6 0 0 1 6 6v12a6 6 0 0 1-12 0V36a6 6 0 0 1 6-6Zm6 34a6 6 0 1 1-12 0 6 6 0 0 1 12 0Z"/>
  <path fill="#000" fill-rule="evenodd" d="M58.873 7.242c-5.757-6.514-15.988-6.514-21.746 0-15.715 17.78-27.914 38.623-35.65 61.07-2.866 8.315 2.358 17.173 10.902 18.842 23.418 4.575 47.824 4.575 71.242 0 8.544-1.669 13.768-10.527 10.903-18.841-7.737-22.448-19.936-43.29-35.651-61.071Zm-12.754 7.947c.98-1.11 2.782-1.11 3.762 0C64.564 31.8 75.96 51.275 83.18 72.223c.461 1.34-.38 2.865-1.858 3.154-21.9 4.278-44.743 4.278-66.642 0-1.478-.289-2.32-1.815-1.858-3.154 7.22-20.948 18.615-40.422 33.298-57.034Z" clip-rule="evenodd"/>
</svg>
