<svg viewBox="0 0 26 24" fill="none" xmlns="http://www.w3.org/2000/svg">
  <path fill-rule="evenodd" clip-rule="evenodd"
    d="M9.67033 1.89631C11.1554 -0.632104 14.8446 -0.632104 16.3297 1.89631L24.4747 15.7715C25.9894 18.3505 24.0713 21.5 21.145 21.5H4.85496C1.92882 21.5 0.0107376 18.3507 1.52511 15.7718L9.67033 1.89631ZM12.2571 3.41565L4.11228 17.2906C3.81645 17.7942 4.16015 18.5 4.85496 18.5H21.145C21.8398 18.5 22.1837 17.7945 21.8879 17.2909L13.7429 3.41565C13.4173 2.86186 12.5827 2.86186 12.2571 3.41565ZM13 6.93732C13.8284 6.93732 14.5 7.60889 14.5 8.43732V10.7499C14.5 11.5783 13.8284 12.2499 13 12.2499C12.1716 12.2499 11.5 11.5783 11.5 10.7499V8.43732C11.5 7.60889 12.1716 6.93732 13 6.93732ZM11.5 15.3749C11.5 14.5465 12.1716 13.8749 13 13.8749H13.0118C13.8402 13.8749 14.5118 14.5465 14.5118 15.3749C14.5118 16.2034 13.8402 16.8749 13.0118 16.8749H13C12.1716 16.8749 11.5 16.2034 11.5 15.3749Z"
    fill="currentColor" />
</svg>