<svg width="24" height="24" viewBox="0 0 24 24" fill="none" xmlns="http://www.w3.org/2000/svg">
<path fill-rule="evenodd" clip-rule="evenodd" d="M12 24C15.1826 24 18.2348 22.7357 20.4853 20.4853C22.7357 18.2348 24 15.1826 24 12C24 8.8174 22.7357 5.76516 20.4853 3.51472C18.2348 1.26428 15.1826 0 12 0C8.8174 0 5.76516 1.26428 3.51472 3.51472C1.26428 5.76516 0 8.8174 0 12C0 15.1826 1.26428 18.2348 3.51472 20.4853C5.76516 22.7357 8.8174 24 12 24ZM17.5605 10.9395L13.0605 6.4395C12.7776 6.16626 12.3987 6.01507 12.0054 6.01849C11.6121 6.02191 11.2359 6.17966 10.9578 6.45777C10.6797 6.73588 10.5219 7.1121 10.5185 7.5054C10.5151 7.89869 10.6663 8.2776 10.9395 8.5605L12.879 10.5H7.5C7.10218 10.5 6.72064 10.658 6.43934 10.9393C6.15804 11.2206 6 11.6022 6 12C6 12.3978 6.15804 12.7794 6.43934 13.0607C6.72064 13.342 7.10218 13.5 7.5 13.5H12.879L10.9395 15.4395C10.7962 15.5779 10.682 15.7434 10.6033 15.9264C10.5247 16.1094 10.4834 16.3062 10.4816 16.5054C10.4799 16.7046 10.5178 16.9021 10.5933 17.0864C10.6687 17.2708 10.7801 17.4383 10.9209 17.5791C11.0617 17.7199 11.2292 17.8313 11.4136 17.9067C11.5979 17.9822 11.7954 18.0201 11.9946 18.0184C12.1938 18.0166 12.3906 17.9753 12.5736 17.8967C12.7566 17.818 12.9221 17.7038 13.0605 17.5605L17.5605 13.0605C17.8417 12.7792 17.9997 12.3977 17.9997 12C17.9997 11.6023 17.8417 11.2208 17.5605 10.9395Z" fill="black"/>
</svg>
