<svg width="96" height="96" viewBox="0 0 96 96" fill="none" xmlns="http://www.w3.org/2000/svg">
<path fill-rule="evenodd" clip-rule="evenodd" d="M76.2425 3.75736C78.5857 6.1005 78.5857 9.8995 76.2425 12.2426L57.4141 31.0711C55.4879 32.9973 52.936 33.9558 50.4685 34.0194C42.7324 34.219 37.861 35.9248 34.7262 38.0295C31.6465 40.0972 29.7538 42.8767 28.5364 46.1747C27.2806 49.577 26.7805 53.4389 26.5481 57.4498C26.4588 58.9905 26.4125 60.4594 26.3661 61.9285C26.3519 62.3762 26.3378 62.8239 26.3225 63.2737C26.2599 65.1077 26.1755 67.043 25.9495 68.776C25.3955 73.0233 23.5354 76.6595 21.4301 79.5612C23.2703 79.6601 25.2439 79.7144 27.2994 79.695C37.7283 79.5966 48.9039 77.6084 56.0951 71.4445C64.514 64.2283 63.6827 52.7961 62.6488 47.4574C62.0351 44.288 62.8375 40.6771 65.4466 38.068L83.7572 19.7574C86.1004 17.4142 89.8994 17.4142 92.2425 19.7574C94.5857 22.1005 94.5857 25.8995 92.2425 28.2426L74.567 45.9182C75.711 52.4298 77.1588 69.1948 63.9046 80.5555C53.379 89.5775 38.5546 91.5893 27.4126 91.6945C21.6859 91.7485 16.5705 91.2994 12.8892 90.8392C11.0432 90.6084 9.544 90.3731 8.49265 90.1926C7.96664 90.1024 7.55174 90.0257 7.2605 89.9699C7.11485 89.942 7.00004 89.9193 6.91762 89.9027L6.81846 89.8826L6.78745 89.8762L6.77665 89.874L6.77243 89.8731C6.77065 89.8727 6.769 89.8724 7.99989 84L6.769 89.8724C4.35838 89.3671 2.50141 87.4399 2.08589 85.0122C1.67148 82.591 2.77475 80.1625 4.86915 78.8816C4.87369 78.8787 4.88693 78.8705 4.90835 78.8569C4.95315 78.8285 5.03337 78.777 5.14427 78.7033C5.3666 78.5556 5.70883 78.3209 6.13377 78.0067C6.99138 77.3725 8.14416 76.4448 9.31589 75.2849C11.7995 72.8263 13.6883 69.9996 14.0503 67.224C14.1933 66.1277 14.2661 64.7193 14.3294 62.8644C14.3427 62.4758 14.3555 62.0686 14.3688 61.6464C14.4159 60.1527 14.4688 58.4705 14.5682 56.7558C14.8236 52.3474 15.4083 47.087 17.2788 42.0194C19.1878 36.8475 22.4629 31.8093 28.0372 28.0668C33.4197 24.453 40.4661 22.369 49.4699 22.0447L67.7572 3.75736C70.1004 1.41421 73.8994 1.41421 76.2425 3.75736ZM4.87432 78.8784L4.87613 78.8773L4.88064 78.8745" fill="black"/>
</svg>
