<svg xmlns="http://www.w3.org/2000/svg" fill="currentColor" viewBox="0 0 120 120">
  <path fill="#000" fill-rule="evenodd" d="M30 12a6 6 0 0 1 12 0v6h36v-6a6 6 0 0 1 12 0v6h14c8.837 0 16 7.163 16 16v64c0 8.837-7.163 16-16 16H16c-8.837 0-16-7.163-16-16V34c0-8.837 7.163-16 16-16h14v-6Zm0 24v-6H16a4 4 0 0 0-4 4v64a4 4 0 0 0 4 4h88a4 4 0 0 0 4-4V34a4 4 0 0 0-4-4H90v6a6 6 0 0 1-12 0v-6H42v6a6 6 0 0 1-12 0Zm2 50a6 6 0 1 0 0-12 6 6 0 0 0 0 12Zm34-6a6 6 0 1 1-12 0 6 6 0 0 1 12 0Zm22 6a6 6 0 1 0 0-12 6 6 0 0 0 0 12ZM25 49a6 6 0 0 0 0 12h70a6 6 0 0 0 0-12H25Z" clip-rule="evenodd"/>
</svg>
