<svg xmlns="http://www.w3.org/2000/svg" fill="currentColor" viewBox="0 0 96 96">
  <path fill="#000" d="M26 72a6 6 0 1 0 0-12 6 6 0 0 0 0 12Zm28-6a6 6 0 1 1-12 0 6 6 0 0 1 12 0Zm16 6a6 6 0 1 0 0-12 6 6 0 0 0 0 12ZM26 40a6 6 0 0 0 0 12h44a6 6 0 0 0 0-12H26Z"/>
  <path fill="#000" fill-rule="evenodd" d="M20 10a6 6 0 0 1 12 0v2h32v-2a6 6 0 0 1 12 0v2h2c9.941 0 18 8.059 18 18v44c0 9.941-8.059 18-18 18H18C8.059 92 0 83.941 0 74V30c0-9.941 8.059-18 18-18h2v-2Zm0 16v-2h-2a6 6 0 0 0-6 6v44a6 6 0 0 0 6 6h60a6 6 0 0 0 6-6V30a6 6 0 0 0-6-6h-2v2a6 6 0 0 1-12 0v-2H32v2a6 6 0 0 1-12 0Z" clip-rule="evenodd"/>
</svg>
