<svg xmlns="http://www.w3.org/2000/svg" fill="currentColor" viewBox="0 0 96 96">
  <path fill="#000" fill-rule="evenodd" d="M48 30c-10.493 0-19 8.507-19 19s8.507 19 19 19 19-8.507 19-19-8.507-19-19-19Zm-7 19a7 7 0 1 1 14 0 7 7 0 0 1-14 0Z" clip-rule="evenodd"/>
  <path fill="#000" fill-rule="evenodd" d="M33.504 8a18 18 0 0 0-17.47 13.66l-1.665 6.706C6.169 30.046 0 37.303 0 46v24c0 9.941 8.059 18 18 18h60c9.941 0 18-8.059 18-18V46c0-8.697-6.168-15.954-14.369-17.634l-1.666-6.706A18 18 0 0 0 62.496 8H33.504ZM16.777 40.122l7.413-1.518 3.49-14.05A6 6 0 0 1 33.505 20h28.992a6 6 0 0 1 5.823 4.553l3.491 14.05 7.413 1.52A6.006 6.006 0 0 1 84 46v24a6 6 0 0 1-6 6H18a6 6 0 0 1-6-6V46a6.006 6.006 0 0 1 4.777-5.878Z" clip-rule="evenodd"/>
</svg>
