<svg xmlns="http://www.w3.org/2000/svg" fill="currentColor" viewBox="0 0 96 96">
  <g clip-path="url(#a)">
    <path fill="#000" d="M71.243 32.757a6 6 0 0 1 0 8.486l-24.98 24.98A5.978 5.978 0 0 1 44.7 67.36a6.017 6.017 0 0 1-5.18.105 5.976 5.976 0 0 1-1.611-1.076L24.93 54.409a6 6 0 0 1 8.14-8.818l8.764 8.09 20.923-20.924a6 6 0 0 1 8.486 0Z"/>
    <path fill="#000" fill-rule="evenodd" d="M48 96c26.51 0 48-21.49 48-48S74.51 0 48 0 0 21.49 0 48s21.49 48 48 48Zm0-12c19.882 0 36-16.118 36-36S67.882 12 48 12 12 28.118 12 48s16.118 36 36 36Z" clip-rule="evenodd"/>
  </g>
  <defs>
    <clipPath id="a">
      <rect width="96" height="96" fill="#fff"/>
    </clipPath>
  </defs>
</svg>
