<svg width="24" height="24" viewBox="0 0 24 24" fill="none" xmlns="http://www.w3.org/2000/svg">
<path fill-rule="evenodd" clip-rule="evenodd" d="M0.584985 0.610577C0.959663 0.235635 1.46777 0.0250036 1.99756 0.0250036C2.52736 0.0250036 3.03546 0.235635 3.41014 0.610577L11.9875 9.19658L20.5649 0.610577C20.7492 0.419556 20.9697 0.267192 21.2134 0.162374C21.4572 0.0575557 21.7194 0.00238315 21.9846 7.55141e-05C22.2499 -0.00223212 22.513 0.0483709 22.7586 0.148933C23.0041 0.249494 23.2272 0.398001 23.4148 0.585786C23.6024 0.773571 23.7508 0.996876 23.8512 1.24267C23.9517 1.48846 24.0022 1.75182 23.9999 2.01738C23.9976 2.28294 23.9425 2.54538 23.8378 2.78938C23.7331 3.03339 23.5809 3.25408 23.39 3.43858L14.8127 12.0246L23.39 20.6106C23.754 20.9878 23.9554 21.493 23.9508 22.0174C23.9463 22.5418 23.7361 23.0434 23.3657 23.4142C22.9953 23.785 22.4941 23.9954 21.9703 23.9999C21.4464 24.0045 20.9417 23.8029 20.5649 23.4386L11.9875 14.8526L3.41014 23.4386C3.03332 23.8029 2.52862 24.0045 2.00475 23.9999C1.48089 23.9954 0.979766 23.785 0.609323 23.4142C0.238879 23.0434 0.0287522 22.5418 0.0241999 22.0174C0.0196477 21.493 0.221035 20.9878 0.584985 20.6106L9.16235 12.0246L0.584985 3.43858C0.210419 3.06352 0 2.5549 0 2.02458C0 1.49425 0.210419 0.985632 0.584985 0.610577V0.610577Z" fill="black"/>
</svg>
