<svg xmlns="http://www.w3.org/2000/svg" fill="currentColor" viewBox="0 0 96 96">
  <path fill="#000" fill-rule="evenodd" d="M48 28c-11.046 0-20 8.954-20 20s8.954 20 20 20 20-8.954 20-20-8.954-20-20-20Zm-8 20a8 8 0 1 1 16 0 8 8 0 0 1-16 0Z" clip-rule="evenodd"/>
  <path fill="#000" fill-rule="evenodd" d="M48 0c-.693 0-1.383.015-2.069.044-5.799.246-10.449 3.635-13.244 7.724l-2.594 3.795c-.39.571-1.06 1.191-2.099 1.793-1.033.598-1.896.864-2.594.918l-4.591.35c-4.926.375-10.176 2.695-13.292 7.576a47.964 47.964 0 0 0-2.091 3.614c-2.686 5.144-2.07 10.862.07 15.319l2.002 4.17c.3.627.502 1.51.502 2.697 0 1.188-.201 2.07-.502 2.697l-2.002 4.17c-2.14 4.457-2.756 10.175-.07 15.32A47.967 47.967 0 0 0 7.517 73.8c3.116 4.881 8.366 7.201 13.292 7.577l4.591.35c.698.053 1.561.32 2.594.917 1.04.602 1.709 1.222 2.1 1.793l2.593 3.795c2.795 4.089 7.445 7.478 13.244 7.724a48.674 48.674 0 0 0 4.138 0c5.799-.246 10.449-3.635 13.244-7.724l2.594-3.795c.39-.571 1.06-1.191 2.099-1.793 1.033-.598 1.897-.864 2.594-.918l4.591-.35c4.926-.375 10.176-2.695 13.292-7.576a47.949 47.949 0 0 0 2.091-3.614c2.686-5.144 2.07-10.862-.07-15.319l-2.002-4.17C88.202 50.07 88 49.187 88 48c0-1.188.201-2.07.502-2.697l2.002-4.17c2.14-4.457 2.756-10.175.07-15.32a47.949 47.949 0 0 0-2.09-3.613c-3.118-4.88-8.368-7.2-13.294-7.577l-4.591-.35c-.697-.053-1.561-.32-2.594-.917-1.04-.602-1.709-1.222-2.1-1.793l-2.593-3.795C60.518 3.679 55.868.29 50.069.044A48.724 48.724 0 0 0 48 0Zm-1.56 12.033a36.657 36.657 0 0 1 3.12 0c1.209.051 2.683.805 3.846 2.507L56 18.335c1.67 2.444 3.875 4.18 5.997 5.408 2.136 1.236 4.737 2.27 7.691 2.496l4.592.35c2.052.156 3.44 1.052 4.089 2.069.56.878 1.084 1.782 1.568 2.709.556 1.065.641 2.714-.25 4.572l-2.003 4.17C76.406 42.773 76 45.54 76 48s.406 5.228 1.684 7.89l2.002 4.17c.892 1.859.807 3.508.25 4.573a36.006 36.006 0 0 1-1.567 2.71c-.65 1.016-2.037 1.912-4.09 2.068l-4.59.35c-2.954.225-5.556 1.26-7.692 2.496-2.122 1.228-4.326 2.964-5.997 5.408l-2.594 3.795c-1.163 1.702-2.637 2.456-3.847 2.507a36.654 36.654 0 0 1-3.118 0c-1.21-.051-2.684-.805-3.847-2.507L40 77.665c-1.67-2.444-3.875-4.18-5.997-5.408-2.136-1.236-4.737-2.27-7.691-2.496l-4.592-.35c-2.052-.156-3.44-1.052-4.089-2.069a35.972 35.972 0 0 1-1.568-2.709c-.556-1.065-.641-2.714.25-4.572l2.003-4.17C19.594 53.227 20 50.46 20 48s-.406-5.228-1.684-7.89l-2.002-4.17c-.892-1.859-.807-3.508-.25-4.573a35.972 35.972 0 0 1 1.567-2.71c.65-1.016 2.037-1.912 4.09-2.068l4.59-.35c2.955-.225 5.556-1.26 7.692-2.496 2.122-1.228 4.326-2.964 5.997-5.408l2.594-3.795c1.163-1.702 2.637-2.456 3.847-2.507Z" clip-rule="evenodd"/>
</svg>
