<svg xmlns="http://www.w3.org/2000/svg" fill="currentColor" viewBox="0 0 120 120">
  <path fill="#000" fill-rule="evenodd" d="M66.638 10.195c-3.115-5.593-11.161-5.593-14.276 0a8.17 8.17 0 0 1-11.333 3.037c-5.494-3.287-12.462.736-12.363 7.138a8.17 8.17 0 0 1-8.296 8.296c-6.402-.1-10.425 6.869-7.139 12.363a8.17 8.17 0 0 1-3.036 11.333c-5.593 3.115-5.593 11.161 0 14.276a8.17 8.17 0 0 1 3.037 11.333c-3.287 5.494.736 12.462 7.138 12.363a8.17 8.17 0 0 1 8.296 8.296c-.1 6.402 6.869 10.425 12.363 7.139a8.17 8.17 0 0 1 11.333 3.036c3.115 5.593 11.161 5.593 14.276 0a8.17 8.17 0 0 1 11.333-3.036c5.494 3.286 12.462-.737 12.363-7.139a8.17 8.17 0 0 1 8.296-8.296c6.402.1 10.425-6.869 7.139-12.363a8.17 8.17 0 0 1 3.036-11.333c5.593-3.115 5.593-11.161 0-14.276a8.17 8.17 0 0 1-3.036-11.333c3.286-5.494-.737-12.462-7.139-12.363a8.17 8.17 0 0 1-8.296-8.296c.1-6.402-6.869-10.425-12.363-7.139a8.17 8.17 0 0 1-11.333-3.036ZM59.5 79C70.27 79 79 70.27 79 59.5S70.27 40 59.5 40 40 48.73 40 59.5 48.73 79 59.5 79Z" clip-rule="evenodd" opacity=".35"/>
  <path fill="#000" fill-rule="evenodd" d="M61.397 13.114c-.828-1.486-2.966-1.486-3.794 0-3.891 6.987-12.79 9.372-19.653 5.267-1.46-.873-3.311.195-3.285 1.896.123 7.997-6.391 14.511-14.388 14.388-1.7-.026-2.77 1.825-1.896 3.285 4.105 6.863 1.72 15.762-5.267 19.653-1.486.828-1.486 2.966 0 3.794 6.987 3.891 9.372 12.79 5.267 19.653-.873 1.46.195 3.311 1.896 3.285 7.997-.123 14.511 6.391 14.388 14.388-.026 1.701 1.825 2.769 3.285 1.896 6.863-4.105 15.762-1.72 19.653 5.266.828 1.487 2.966 1.487 3.794 0 3.891-6.986 12.79-9.37 19.653-5.266 1.46.873 3.311-.195 3.285-1.896-.123-7.997 6.391-14.511 14.388-14.388 1.701.026 2.769-1.825 1.896-3.285-4.105-6.863-1.72-15.762 5.266-19.653 1.487-.828 1.487-2.966 0-3.794-6.986-3.891-9.37-12.79-5.266-19.653.873-1.46-.195-3.311-1.896-3.285-7.997.123-14.511-6.391-14.388-14.388.026-1.7-1.825-2.77-3.285-1.896-6.863 4.105-15.762 1.72-19.653-5.267ZM47.12 7.275c5.403-9.7 19.357-9.7 24.76 0a2.17 2.17 0 0 0 3.01.807c9.53-5.7 21.615 1.278 21.444 12.38a2.17 2.17 0 0 0 2.204 2.204c11.102-.17 18.079 11.914 12.38 21.443a2.17 2.17 0 0 0 .807 3.01c9.7 5.404 9.7 19.358 0 24.761a2.17 2.17 0 0 0-.807 3.01c5.699 9.53-1.278 21.615-12.38 21.444a2.17 2.17 0 0 0-2.204 2.204c.17 11.102-11.914 18.079-21.443 12.38a2.17 2.17 0 0 0-3.01.807c-5.404 9.7-19.358 9.7-24.761 0a2.17 2.17 0 0 0-3.01-.807c-9.53 5.699-21.615-1.278-21.444-12.38a2.17 2.17 0 0 0-2.204-2.204C9.36 96.504 2.382 84.42 8.082 74.89a2.17 2.17 0 0 0-.807-3.01c-9.7-5.404-9.7-19.358 0-24.761l2.92 5.242-2.92-5.242a2.17 2.17 0 0 0 .807-3.01c-5.7-9.53 1.278-21.615 12.38-21.444a2.17 2.17 0 0 0 2.204-2.204C22.496 9.36 34.58 2.382 44.11 8.082a2.17 2.17 0 0 0 3.01-.807l5.243 2.92-5.242-2.92ZM34 59.5C34 45.417 45.417 34 59.5 34S85 45.417 85 59.5 73.583 85 59.5 85 34 73.583 34 59.5ZM59.5 46C52.044 46 46 52.044 46 59.5S52.044 73 59.5 73 73 66.956 73 59.5 66.956 46 59.5 46Z" clip-rule="evenodd"/>
</svg>
