<svg xmlns="http://www.w3.org/2000/svg" fill="currentColor" viewBox="0 0 96 96">
  <path fill="#000" fill-rule="evenodd" d="M50 96c-7.732 0-14-6.268-14-14V42c0-7.732 6.268-14 14-14h24c7.732 0 14 6.268 14 14v40c0 7.732-6.268 14-14 14H50Zm-2-14a2 2 0 0 0 2 2h24a2 2 0 0 0 2-2V42a2 2 0 0 0-2-2H50a2 2 0 0 0-2 2v40Z" clip-rule="evenodd"/>
  <path fill="#000" d="M22 0C14.268 0 8 6.268 8 14v40c0 7.732 6.268 14 14 14a6 6 0 0 0 0-12 2 2 0 0 1-2-2V14a2 2 0 0 1 2-2h24a2 2 0 0 1 2 2 6 6 0 0 0 12 0c0-7.732-6.268-14-14-14H22Z"/>
</svg>
