<svg xmlns="http://www.w3.org/2000/svg" fill="currentColor" viewBox="0 0 120 120">
  <path fill="#000" fill-rule="evenodd" d="M29.802 49.38C34.181 36.928 46.052 28 60 28c17.673 0 32 14.327 32 32 0 17.673-14.327 32-32 32a31.824 31.824 0 0 1-16.417-4.525 6 6 0 1 0-6.166 10.294A43.82 43.82 0 0 0 60 104c24.3 0 44-19.7 44-44S84.3 16 60 16c-18.467 0-34.268 11.372-40.797 27.494l-4.053-10.25a6 6 0 0 0-11.16 4.411l9.577 24.224a6 6 0 0 0 7.643 3.428l24.46-8.958a6 6 0 1 0-4.127-11.268l-11.74 4.3Z" clip-rule="evenodd"/>
</svg>
