<svg xmlns="http://www.w3.org/2000/svg" fill="currentColor" viewBox="0 0 96 96">
  <g clip-path="url(#a)">
    <path fill="#000" fill-rule="evenodd" d="M96 48c0 26.51-21.49 48-48 48S0 74.51 0 48 21.49 0 48 0s48 21.49 48 48Zm-12 0c0 19.882-16.118 36-36 36a35.836 35.836 0 0 1-20.86-6.656l50.204-50.203A35.836 35.836 0 0 1 84 48ZM18.656 68.86l50.203-50.204A35.836 35.836 0 0 0 48 12c-19.882 0-36 16.118-36 36a35.836 35.836 0 0 0 6.655 20.86Z" clip-rule="evenodd"/>
  </g>
  <defs>
    <clipPath id="a">
      <rect width="96" height="96" fill="#fff"/>
    </clipPath>
  </defs>
</svg>
