<svg xmlns="http://www.w3.org/2000/svg" fill="currentColor" viewBox="0 0 120 120">
  <g clip-path="url(#a)">
    <path fill="#000" fill-rule="evenodd" d="M0 27.5C0 12.312 12.312 0 27.5 0S55 12.312 55 27.5 42.688 55 27.5 55 0 42.688 0 27.5ZM27.5 43C18.94 43 12 36.06 12 27.5 12 18.94 18.94 12 27.5 12 36.06 12 43 18.94 43 27.5 43 36.06 36.06 43 27.5 43ZM0 92.5C0 77.312 12.312 65 27.5 65S55 77.312 55 92.5 42.688 120 27.5 120 0 107.688 0 92.5ZM27.5 108c-8.56 0-15.5-6.94-15.5-15.5C12 83.94 18.94 77 27.5 77 36.06 77 43 83.94 43 92.5c0 8.56-6.94 15.5-15.5 15.5Zm65-108C77.312 0 65 12.312 65 27.5S77.312 55 92.5 55 120 42.688 120 27.5 107.688 0 92.5 0ZM77 27.5C77 36.06 83.94 43 92.5 43c8.56 0 15.5-6.94 15.5-15.5 0-8.56-6.94-15.5-15.5-15.5C83.94 12 77 18.94 77 27.5Zm-14 65C63 77.312 75.312 65 90.5 65S118 77.312 118 92.5 105.688 120 90.5 120 63 107.688 63 92.5ZM90.5 108c-8.56 0-15.5-6.94-15.5-15.5C75 83.94 81.94 77 90.5 77c8.56 0 15.5 6.94 15.5 15.5 0 8.56-6.94 15.5-15.5 15.5Z" clip-rule="evenodd"/>
  </g>
  <defs>
    <clipPath id="a">
      <rect width="120" height="120" fill="#fff"/>
    </clipPath>
  </defs>
</svg>
