<svg xmlns="http://www.w3.org/2000/svg" fill="currentColor" viewBox="0 0 96 96">
  <g clip-path="url(#a)">
    <path fill="#000" fill-rule="evenodd" d="M22 40c9.941 0 18-8.059 18-18S31.941 4 22 4 4 12.059 4 22s8.059 18 18 18Zm0 52c9.941 0 18-8.059 18-18s-8.059-18-18-18S4 64.059 4 74s8.059 18 18 18Zm70-70c0 9.941-8.059 18-18 18s-18-8.059-18-18S64.059 4 74 4s18 8.059 18 18ZM74 92c9.941 0 18-8.059 18-18s-8.059-18-18-18-18 8.059-18 18 8.059 18 18 18Z" clip-rule="evenodd" opacity=".35"/>
    <path fill="#000" fill-rule="evenodd" d="M0 22C0 9.85 9.85 0 22 0s22 9.85 22 22-9.85 22-22 22S0 34.15 0 22Zm22 10c-5.523 0-10-4.477-10-10s4.477-10 10-10 10 4.477 10 10-4.477 10-10 10ZM0 74c0-12.15 9.85-22 22-22s22 9.85 22 22-9.85 22-22 22S0 86.15 0 74Zm22 10c-5.523 0-10-4.477-10-10s4.477-10 10-10 10 4.477 10 10-4.477 10-10 10ZM74 0C61.85 0 52 9.85 52 22s9.85 22 22 22 22-9.85 22-22S86.15 0 74 0ZM64 22c0 5.523 4.477 10 10 10s10-4.477 10-10-4.477-10-10-10-10 4.477-10 10ZM52 74c0-12.15 9.85-22 22-22s22 9.85 22 22-9.85 22-22 22-22-9.85-22-22Zm22 10c-5.523 0-10-4.477-10-10s4.477-10 10-10 10 4.477 10 10-4.477 10-10 10Z" clip-rule="evenodd"/>
  </g>
  <defs>
    <clipPath id="a">
      <rect width="96" height="96" fill="#fff"/>
    </clipPath>
  </defs>
</svg>
