<svg xmlns="http://www.w3.org/2000/svg" fill="currentColor" viewBox="0 0 96 96">
  <path fill="#000" fill-rule="evenodd" d="M57.863 23.936A13.957 13.957 0 0 0 62 14c0-7.732-6.268-14-14-14S34 6.268 34 14c0 3.885 1.582 7.4 4.137 9.936A13.956 13.956 0 0 0 48 28c3.847 0 7.332-1.552 9.863-4.064Zm0 14.128A13.956 13.956 0 0 0 48 34a13.956 13.956 0 0 0-9.863 4.064A13.957 13.957 0 0 0 34 48c0 3.885 1.582 7.4 4.137 9.936A13.956 13.956 0 0 0 48 62c3.847 0 7.332-1.552 9.863-4.064A13.957 13.957 0 0 0 62 48c0-3.885-1.582-7.4-4.137-9.936Zm0 34A13.956 13.956 0 0 0 48 68a13.956 13.956 0 0 0-9.863 4.064A13.957 13.957 0 0 0 34 82c0 7.732 6.268 14 14 14s14-6.268 14-14c0-3.885-1.582-7.4-4.137-9.936ZM48 12a2 2 0 1 0 0 4 2 2 0 0 0 0-4Zm0 34a2 2 0 1 0 0 4 2 2 0 0 0 0-4Zm0 34a2 2 0 1 0 0 4 2 2 0 0 0 0-4Z" clip-rule="evenodd"/>
</svg>
