<svg xmlns="http://www.w3.org/2000/svg" fill="currentColor" viewBox="0 0 120 120">
  <path fill="#000" d="M42 18c0-9.941 8.059-18 18-18s18 8.059 18 18-8.059 18-18 18-18-8.059-18-18Zm0 42c0-9.941 8.059-18 18-18s18 8.059 18 18-8.059 18-18 18-18-8.059-18-18Zm18 24c-9.941 0-18 8.059-18 18s8.059 18 18 18 18-8.059 18-18-8.059-18-18-18Z" opacity=".35"/>
  <path fill="#000" fill-rule="evenodd" d="M60 0c-9.941 0-18 8.059-18 18s8.059 18 18 18 18-8.059 18-18S69.941 0 60 0Zm-6 18a6 6 0 1 0 12 0 6 6 0 0 0-12 0Zm6 24c-9.941 0-18 8.059-18 18s8.059 18 18 18 18-8.059 18-18-8.059-18-18-18Zm-6 18a6 6 0 1 0 12 0 6 6 0 0 0-12 0Zm-12 42c0-9.941 8.059-18 18-18s18 8.059 18 18-8.059 18-18 18-18-8.059-18-18Zm18 6a6 6 0 1 1 0-12 6 6 0 0 1 0 12Z" clip-rule="evenodd"/>
</svg>
