<svg xmlns="http://www.w3.org/2000/svg" fill="currentColor" viewBox="0 0 120 120">
  <g clip-path="url(#a)">
    <path fill="#000" fill-rule="evenodd" d="M60 12c-26.51 0-48 21.49-48 48s21.49 48 48 48 48-21.49 48-48-21.49-48-48-48Zm0-12C26.863 0 0 26.863 0 60s26.863 60 60 60 60-26.863 60-60S93.137 0 60 0ZM43.243 59.757a6 6 0 1 0-8.486 8.486l21 21a6 6 0 0 0 8.486 0l.004-.004 20.996-20.996a6 6 0 1 0-8.486-8.486L66 70.515V34a6 6 0 0 0-12 0v36.515L43.243 59.757Z" clip-rule="evenodd"/>
  </g>
  <defs>
    <clipPath id="a">
      <rect width="120" height="120" fill="#fff"/>
    </clipPath>
  </defs>
</svg>
