<svg xmlns="http://www.w3.org/2000/svg" fill="currentColor" viewBox="0 0 96 96">
  <g clip-path="url(#a)">
    <path fill="#000" d="M42 28v25.515l-6.757-6.758a6 6 0 1 0-8.486 8.486l17 17a6.002 6.002 0 0 0 8.485 0l.006-.006 16.995-16.994a6 6 0 1 0-8.486-8.486L54 53.515V28a6 6 0 0 0-12 0Z"/>
    <path fill="#000" fill-rule="evenodd" d="M0 48C0 21.49 21.49 0 48 0s48 21.49 48 48-21.49 48-48 48S0 74.51 0 48Zm12 0c0-19.882 16.118-36 36-36s36 16.118 36 36-16.118 36-36 36-36-16.118-36-36Z" clip-rule="evenodd"/>
  </g>
  <defs>
    <clipPath id="a">
      <rect width="96" height="96" fill="#fff"/>
    </clipPath>
  </defs>
</svg>
