<svg xmlns="http://www.w3.org/2000/svg" fill="currentColor" viewBox="0 0 96 96">
  <path fill="#000" d="M18 4C8.059 4 0 12.059 0 22v52c0 9.941 8.059 18 18 18h20c9.941 0 18-8.059 18-18v-4a6 6 0 0 0-12 0v4a6 6 0 0 1-6 6H18a6 6 0 0 1-6-6V22a6 6 0 0 1 6-6h20a6 6 0 0 1 6 6v4a6 6 0 0 0 12 0v-4c0-9.941-8.059-18-18-18H18Z"/>
  <path fill="#000" d="M94.462 52.011a6 6 0 0 0-.471-8.492L74.014 25.54a6 6 0 0 0-8.028 8.92L74.364 42H38a6 6 0 0 0 0 12h36.364l-8.378 7.54a6 6 0 0 0 8.028 8.92l20-18a5.93 5.93 0 0 0 .448-.449Z"/>
</svg>
