<svg width="24" height="24" viewBox="0 0 24 24" fill="none" xmlns="http://www.w3.org/2000/svg">
  <rect width="24" height="24" rx="12" fill="currentColor" fill-opacity="0.15" />
  <path fill-rule="evenodd" clip-rule="evenodd"
    d="M7.15726 7.17299C7.31622 7.01408 7.53178 6.92481 7.75654 6.92481C7.9813 6.92481 8.19686 7.01408 8.35581 7.17299L11.9947 10.8119L15.6336 7.17299C15.7118 7.09203 15.8053 7.02746 15.9087 6.98303C16.0121 6.93861 16.1234 6.91523 16.2359 6.91425C16.3485 6.91327 16.4601 6.93472 16.5642 6.97734C16.6684 7.01995 16.7631 7.08289 16.8426 7.16248C16.9222 7.24207 16.9852 7.33671 17.0278 7.44088C17.0704 7.54505 17.0919 7.65666 17.0909 7.76921C17.0899 7.88176 17.0665 7.99299 17.0221 8.0964C16.9777 8.19982 16.9131 8.29335 16.8321 8.37154L13.1932 12.0104L16.8321 15.6493C16.9865 15.8092 17.072 16.0233 17.07 16.2455C17.0681 16.4678 16.979 16.6804 16.8218 16.8375C16.6647 16.9947 16.4521 17.0838 16.2298 17.0858C16.0076 17.0877 15.7934 17.0023 15.6336 16.8479L11.9947 13.209L8.35581 16.8479C8.19595 17.0023 7.98184 17.0877 7.75959 17.0858C7.53734 17.0838 7.32475 16.9947 7.16759 16.8375C7.01043 16.6804 6.92129 16.4678 6.91935 16.2455C6.91742 16.0233 7.00286 15.8092 7.15726 15.6493L10.7961 12.0104L7.15726 8.37154C6.99836 8.21258 6.90909 7.99702 6.90909 7.77226C6.90909 7.5475 6.99836 7.33194 7.15726 7.17299V7.17299Z"
    fill="currentColor" />
</svg>