<svg xmlns="http://www.w3.org/2000/svg" fill="currentColor" viewBox="0 0 120 120">
  <path fill="#000" d="M25 9C15.059 9 7 17.059 7 27v66c0 9.941 8.059 18 18 18h30c9.941 0 18-8.059 18-18v-6.309a6 6 0 0 0-12 0V93a6 6 0 0 1-6 6H25a6 6 0 0 1-6-6V27a6 6 0 0 1 6-6h30a6 6 0 0 1 6 6v6.309a6 6 0 0 0 12 0V27c0-9.941-8.059-18-18-18H25Z"/>
  <path fill="#000" d="M85.849 41.332 99.067 54H50a6 6 0 0 0 0 12h49.067L85.85 78.668a6 6 0 1 0 8.302 8.664l23.247-22.278a7 7 0 0 0 0-10.108L94.151 32.668a6 6 0 1 0-8.302 8.664Z"/>
</svg>
