<svg xmlns="http://www.w3.org/2000/svg" fill="currentColor" viewBox="0 0 96 96">
  <path fill="#000" fill-rule="evenodd" d="M48 28c-11.046 0-20 8.954-20 20s8.954 20 20 20 20-8.954 20-20-8.954-20-20-20Zm-8 20a8 8 0 1 1 16 0 8 8 0 0 1-16 0Z" clip-rule="evenodd"/>
  <path fill="#000" fill-rule="evenodd" d="M48 12c-11.555 0-21.694 5.905-29.276 12.159C11.051 30.489 5.26 37.783 2.29 41.868a11.23 11.23 0 0 0 0 13.264c2.97 4.085 8.76 11.38 16.434 17.709C26.306 79.095 36.445 85 48 85s21.694-5.905 29.276-12.159c7.673-6.33 13.464-13.624 16.434-17.709a11.23 11.23 0 0 0 0-13.264c-2.97-4.085-8.76-11.38-16.434-17.709C69.694 17.905 59.555 12 48 12ZM26.36 63.584C20.026 58.359 15.054 52.23 12.306 48.5c2.748-3.73 7.72-9.859 14.054-15.084C33.033 27.912 40.5 24 48 24s14.967 3.912 21.64 9.416C75.974 38.641 80.946 44.77 83.694 48.5c-2.748 3.73-7.72 9.859-14.054 15.084C62.967 69.088 55.5 73 48 73s-14.967-3.912-21.64-9.416Z" clip-rule="evenodd"/>
</svg>
