<svg xmlns="http://www.w3.org/2000/svg" fill="currentColor" viewBox="0 0 120 120">
  <g clip-path="url(#a)">
    <path fill="#000" fill-rule="evenodd" d="M60 34c-14.36 0-26 11.64-26 26s11.64 26 26 26 26-11.64 26-26-11.64-26-26-26ZM46 60c0-7.732 6.268-14 14-14s14 6.268 14 14-6.268 14-14 14-14-6.268-14-14Z" clip-rule="evenodd"/>
    <path fill="#000" fill-rule="evenodd" d="M60 14c-14.043 0-26.519 7.11-36.112 14.981C14.21 36.923 6.756 46.221 2.644 51.87a14.601 14.601 0 0 0 0 17.26c4.112 5.648 11.565 14.947 21.244 22.889C33.481 99.89 45.958 107 60 107c14.043 0 26.519-7.11 36.112-14.981 9.679-7.942 17.132-17.24 21.244-22.889a14.6 14.6 0 0 0 0-17.26c-4.112-5.648-11.565-14.947-21.244-22.889C86.519 21.11 74.042 14 60 14ZM12.346 58.932c3.81-5.234 10.577-13.636 19.154-20.674C40.163 31.149 49.98 26 60 26s19.837 5.15 28.5 12.258c8.577 7.038 15.344 15.44 19.155 20.674.7.962.7 2.174 0 3.136-3.811 5.234-10.578 13.636-19.155 20.674C79.837 89.85 70.02 95 60 95s-19.837-5.15-28.5-12.258c-8.577-7.038-15.344-15.44-19.154-20.674-.7-.962-.7-2.174 0-3.136Z" clip-rule="evenodd"/>
  </g>
  <defs>
    <clipPath id="a">
      <rect width="120" height="120" fill="#fff"/>
    </clipPath>
  </defs>
</svg>
