<svg xmlns="http://www.w3.org/2000/svg" fill="currentColor" viewBox="0 0 96 96">
  <path fill="#000" d="M12.628 48.4C16.224 41.294 27.214 24 48 24c2.766 0 5.328.3 7.703.825a6 6 0 1 0 2.594-11.716A47.514 47.514 0 0 0 48 12C19.107 12 5.122 36.447 1.6 43.625a10.836 10.836 0 0 0 .068 9.702c1.471 2.903 4.368 7.96 8.934 13.14a6 6 0 0 0 9.002-7.934A52.365 52.365 0 0 1 12.628 48.4Zm69.02-14.01a6 6 0 0 1 8.328 1.623 65.09 65.09 0 0 1 4.418 7.602 10.829 10.829 0 0 1-.055 9.698C90.74 60.42 76.733 84 48 84c-1.155 0-2.29-.039-3.404-.114a6 6 0 1 1 .808-11.973c.844.057 1.71.087 2.596.087 20.803 0 31.775-16.72 35.372-23.6a53.684 53.684 0 0 0-3.348-5.682 6 6 0 0 1 1.624-8.329Z"/>
  <path fill="#000" fill-rule="evenodd" d="M59.723 31.792c-7.82-5.67-18.818-4.982-25.865 2.066-7.047 7.047-7.736 18.045-2.066 25.865L13.757 77.757a6 6 0 1 0 8.486 8.486l64-64a6 6 0 1 0-8.486-8.486L59.723 31.792Zm-8.77 8.77a8.002 8.002 0 0 0-10.39 10.39l10.39-10.39Z" clip-rule="evenodd"/>
</svg>
