<svg xmlns="http://www.w3.org/2000/svg" fill="currentColor" viewBox="0 0 120 120">
  <g clip-path="url(#a)">
    <path fill="#000" d="M60 26c3.562 0 7.101.647 10.594 1.817a6 6 0 1 0 3.812-11.378C69.86 14.916 65.03 14 60 14c-14.043 0-26.519 7.11-36.112 14.981C14.21 36.923 6.756 46.221 2.644 51.87a14.61 14.61 0 0 0 .005 17.267 138.177 138.177 0 0 0 10.117 12.326 6 6 0 0 0 8.811-8.146 126.17 126.17 0 0 1-9.227-11.243c-.704-.967-.701-2.185-.005-3.142 3.811-5.234 10.578-13.636 19.155-20.674C40.163 31.149 49.98 26 60 26Zm38.238 12.7a6 6 0 0 0-.282 8.481 125.891 125.891 0 0 1 9.696 11.748c.702.964.701 2.18.003 3.139-3.811 5.234-10.578 13.636-19.155 20.674C79.837 89.85 70.02 95 60 95c-3.767 0-7.508-.724-11.196-2.024a6 6 0 0 0-3.99 11.317C49.586 105.976 54.68 107 60 107c14.043 0 26.519-7.11 36.112-14.981 9.679-7.942 17.132-17.24 21.244-22.889a14.605 14.605 0 0 0-.002-17.264 137.962 137.962 0 0 0-10.635-12.883 6 6 0 0 0-8.48-.282Z"/>
    <path fill="#000" fill-rule="evenodd" d="M103.518 16.482c-2.343-2.343-6.58-1.905-9.465.98L73.648 37.867A25.903 25.903 0 0 0 60 34c-14.36 0-26 11.64-26 26 0 4.996 1.415 9.678 3.867 13.648L17.462 94.053c-2.885 2.884-3.323 7.122-.98 9.465s6.58 1.905 9.465-.979l76.591-76.592c2.885-2.884 3.323-7.122.98-9.465Zm-56.71 48.224 17.898-17.897A13.976 13.976 0 0 0 60 46c-7.732 0-14 6.268-14 14 0 1.655.285 3.238.809 4.706Z" clip-rule="evenodd"/>
  </g>
  <defs>
    <clipPath id="a">
      <rect width="120" height="120" fill="#fff"/>
    </clipPath>
  </defs>
</svg>
