<svg xmlns="http://www.w3.org/2000/svg" fill="currentColor" viewBox="0 0 96 96">
  <path fill="#000" d="M57.028 14.057C50.441 9.079 41 13.779 41 22.036v1.526a6 6 0 0 0 11.591 2.182L82.047 48 52.591 70.256A6.002 6.002 0 0 0 41 72.437v1.527c0 8.257 9.44 12.957 16.028 7.98l34.365-25.965c5.296-4.001 5.296-11.957 0-15.958L57.028 14.057Z"/>
  <path fill="#000" fill-rule="evenodd" d="M16.028 14.057C9.441 9.079 0 13.779 0 22.036v51.928c0 8.257 9.44 12.957 16.028 7.98l34.365-25.965c5.295-4.001 5.296-11.957 0-15.958L16.028 14.057ZM12 69.947V26.053L41.047 48 12 69.947Z" clip-rule="evenodd"/>
</svg>
