<svg xmlns="http://www.w3.org/2000/svg" fill="currentColor" viewBox="0 0 120 120">
  <path fill="#000" fill-rule="evenodd" d="M61.326 32.38c.094-.218.315-.442.632-.548a.942.942 0 0 1 .397-.047.986.986 0 0 1 .425.158l43.541 27.209a1 1 0 0 1 0 1.696L62.78 88.057a.987.987 0 0 1-.425.158.942.942 0 0 1-.397-.047 1.046 1.046 0 0 1-.632-.548 6 6 0 0 0-11.016 4.76c2.977 6.889 11.72 10.296 18.83 5.853l43.54-27.209c8.148-5.091 8.148-16.957 0-22.049L69.14 21.767c-7.11-4.443-15.853-1.036-18.83 5.853a6 6 0 1 0 11.016 4.76Zm3.354 38.645c8.148-5.092 8.148-16.958 0-22.05L21.14 21.767c-8.66-5.41-19.89.814-19.89 11.024V87.21c0 10.21 11.23 16.435 19.89 11.024l43.54-27.209Zm-6.36-11.873a1 1 0 0 1 0 1.696L14.78 88.057a1 1 0 0 1-1.53-.849V32.793a1 1 0 0 1 1.53-.849l43.54 27.209Z" clip-rule="evenodd"/>
</svg>
