<svg width="96" height="96" viewBox="0 0 96 96" fill="none" xmlns="http://www.w3.org/2000/svg">
<g clip-path="url(#clip0_1971_6961)">
<path fill-rule="evenodd" clip-rule="evenodd" d="M48 76C68.8865 76 84 60.7116 84 44C84 27.2884 68.8865 12 48 12C27.1135 12 12 27.2884 12 44C12 52.5285 15.7687 60.4532 22.2797 66.3691C25.585 69.3724 27.9143 73.8008 27.9977 78.8795L31.8018 77.0423L37.0205 87.848L23.1745 94.5351C19.8544 96.1385 16 93.7196 16 90.0326V79.1615C16 77.6642 15.3181 76.2574 14.2099 75.2505C5.4349 67.2774 0 56.2205 0 44C0 19.6995 21.4903 0 48 0C74.5097 0 96 19.6995 96 44C96 68.3005 74.5097 88 48 88C45.311 88 42.6736 87.7973 40.105 87.4077C39.0548 87.2484 37.9771 87.3861 37.0205 87.848L31.8018 77.0422C35.1106 75.4443 38.659 75.0511 41.9048 75.5434C43.8787 75.8428 45.9145 76 48 76Z" fill="black"/>
</g>
<defs>
<clipPath id="clip0_1971_6961">
<rect width="96" height="96" fill="white"/>
</clipPath>
</defs>
</svg>
