<svg xmlns="http://www.w3.org/2000/svg" fill="currentColor" viewBox="0 0 120 120">
  <g clip-path="url(#a)">
    <path fill="#000" fill-rule="evenodd" d="m17.215 19.59 36.752 51.534a10 10 0 0 1 1.859 5.806v22.998l8.348 6.121V76.93a10 10 0 0 1 1.858-5.806l36.753-51.533C97.821 16.654 85.87 12 60 12c-25.87 0-37.821 4.654-42.785 7.59ZM7.07 12.102C12.71 7.308 26.742 0 60 0c33.259 0 47.292 7.308 52.931 12.101 4.206 3.575 3.525 8.988 1.282 12.133L76.174 77.57v32.425c0 8.19-9.308 12.907-15.913 8.065l-12.348-9.053a10 10 0 0 1-4.087-8.065V77.57L5.788 24.234c-2.244-3.145-2.925-8.558 1.281-12.133Z" clip-rule="evenodd"/>
  </g>
  <defs>
    <clipPath id="a">
      <rect width="120" height="120" fill="#fff"/>
    </clipPath>
  </defs>
</svg>
