<svg xmlns="http://www.w3.org/2000/svg" fill="currentColor" viewBox="0 0 96 96">
  <g clip-path="url(#a)">
    <path fill="#000" fill-rule="evenodd" d="M48 12c-19.551 0-28.246 5.992-31.795 9.614a.644.644 0 0 0-.17.252 1.069 1.069 0 0 0-.034.425c.04.504.312 1.313 1.005 2.145L39.828 51.82A18 18 0 0 1 44 63.345V80a4 4 0 0 0 8 0V63.345a18 18 0 0 1 4.172-11.524l22.822-27.385c.693-.832.965-1.641 1.005-2.145a1.069 1.069 0 0 0-.034-.425.644.644 0 0 0-.17-.252C76.246 17.992 67.55 12 48 12ZM7.633 13.217C13.793 6.93 25.767 0 48 0c22.233 0 34.207 6.93 40.367 13.217 5.966 6.091 3.67 14.31-.155 18.9L65.391 59.505A6 6 0 0 0 64 63.344V80c0 8.837-7.163 16-16 16s-16-7.163-16-16V63.345a6 6 0 0 0-1.39-3.841L7.787 32.118c-3.826-4.591-6.121-12.81-.155-18.9Z" clip-rule="evenodd"/>
  </g>
  <defs>
    <clipPath id="a">
      <rect width="96" height="96" fill="#fff"/>
    </clipPath>
  </defs>
</svg>
