<svg width="20" height="20" viewBox="0 0 20 20" fill="none" xmlns="http://www.w3.org/2000/svg">
<g clip-path="url(#clip0_3998_6392)">
<path d="M7.05947 19.9737C7.25483 20.0776 7.46091 19.8527 7.3413 19.6665C6.69208 18.6561 6.07731 16.9559 7.05679 14.7661C8.69019 11.1146 9.68411 9.22335 9.68411 9.22335C9.68411 9.22335 10.2128 11.4304 11.6458 13.3928C13.0251 15.2815 13.78 17.6568 12.563 19.6356C12.4488 19.8213 12.6502 20.0404 12.8442 19.9411C14.3508 19.1705 16.0405 17.6246 16.2312 14.5484C16.3015 13.6084 16.1961 12.2924 15.6689 10.6317C14.9911 8.52692 14.1578 7.54479 13.6757 7.12302C13.5315 6.99685 13.3072 7.10868 13.319 7.29992C13.4595 9.57097 12.6051 10.1473 12.1188 8.84848C11.9246 8.32973 11.8113 7.43247 11.8113 6.33979C11.8113 4.52067 11.2836 2.64805 10.12 1.12635C9.81741 0.730628 9.46336 0.360856 9.05715 0.0455287C8.91009 -0.0686545 8.69692 0.0461169 8.71038 0.231804C8.79973 1.46501 8.71878 4.9993 5.61809 9.22165C2.80668 13.1384 3.8961 16.1464 4.28267 16.9611C5.02175 18.5218 6.05267 19.4384 7.05947 19.9737Z" fill="black" fill-opacity="0.4"/>
</g>
<defs>
<clipPath id="clip0_3998_6392">
<rect width="20" height="20" fill="white"/>
</clipPath>
</defs>
</svg>