<svg xmlns="http://www.w3.org/2000/svg" fill="currentColor" viewBox="0 0 96 96">
  <path fill="#000" fill-rule="evenodd" d="M46.656 17.497C43.927 28.1 38.483 36.16 33.67 42.944l-.736 1.036C26.815 52.6 22.8 58.254 22.8 65.274c0 6.105 2.309 10.44 5.104 13.452.692-15.463 10.033-27.11 13.693-31.144 2.221-2.449 5.547-2.743 8.02-1.496a6.824 6.824 0 0 1 3.719 6.68c-.307 3.637.344 5.865 1.183 7.52.799 1.578 1.788 2.767 3.197 4.46.328.395.679.817 1.055 1.277 1.83 2.238 4.126 5.28 5.066 9.59.142.653.25 1.317.323 1.993 3.734-3.383 5.918-6.822 7.08-10.137 1.932-5.508 1.4-11.69-1.23-18.444-4.32-11.095-13.762-22.356-23.354-31.528ZM36.289 6.802c.363-4.974 6.52-8.732 11.21-4.716 11.96 10.239 27.197 25.897 33.693 42.585 3.304 8.487 4.539 17.74 1.373 26.768-3.178 9.064-10.436 16.893-22.097 23.204-5.36 2.9-11.915-2.301-9.64-8.38 1.623-4.339 1.585-6.714 1.284-8.093-.307-1.41-1.05-2.619-2.63-4.55-.22-.269-.465-.56-.73-.876-1.445-1.72-3.464-4.123-4.939-7.036l-.105-.21c-2.973 5.887-5.09 13.569-2.977 22.02a6.806 6.806 0 0 1-1.878 6.565 6.705 6.705 0 0 1-7.173 1.382c-4.828-1.948-20.88-9.95-20.88-30.19 0-11.019 6.268-19.762 11.71-27.353.466-.648.924-1.288 1.372-1.92 6.033-8.506 11.522-17.041 12.407-29.2Z" clip-rule="evenodd"/>
</svg>
