<svg xmlns="http://www.w3.org/2000/svg" fill="currentColor" viewBox="0 0 120 120">
  <path fill="#000" fill-rule="evenodd" d="M57.107 17.77C53.928 32.473 46.35 43.414 39.592 52.658l-1.146 1.565C30.56 64.983 25 72.572 25 82c0 10.49 5.24 17.129 10.442 21.132-.74-21.25 12.718-37.458 17.697-42.752 2.319-2.465 5.716-2.714 8.23-1.408a7.033 7.033 0 0 1 3.75 6.887c-.442 4.92.455 8.05 1.695 10.436 1.141 2.195 2.587 3.88 4.466 6.067.419.488.858 1 1.321 1.549 2.365 2.802 5.183 6.444 6.335 11.582.417 1.859.594 3.804.523 5.862 6.973-5.239 10.895-10.712 12.83-16.05 2.705-7.458 1.917-15.717-1.634-24.554-6.172-15.36-20.05-30.845-33.548-42.98ZM46.48 7.565c.375-5.086 6.616-8.942 11.455-4.928C73.597 15.624 93.39 35.37 101.79 56.276c4.261 10.605 5.799 22.037 1.781 33.12-4.024 11.097-13.232 20.78-28.296 28.661-5.544 2.9-12.235-2.521-9.82-8.754 2.218-5.727 2.248-9.062 1.772-11.185-.486-2.166-1.672-3.95-3.797-6.469-.305-.362-.64-.748-.994-1.157-1.911-2.208-4.424-5.112-6.27-8.662a27.44 27.44 0 0 1-1.581-3.665c-4.951 8.053-9.332 19.597-5.98 32.552a7.01 7.01 0 0 1-1.878 6.777 6.886 6.886 0 0 1-7.33 1.493C33.412 116.663 13 106.932 13 82c0-13.53 7.93-24.267 15.117-33.998.603-.816 1.2-1.625 1.788-2.428 7.96-10.885 15.397-22.065 16.575-38.01Z" clip-rule="evenodd"/>
</svg>
