<svg xmlns="http://www.w3.org/2000/svg" fill="currentColor" viewBox="0 0 120 120">
  <path fill="#000" fill-rule="evenodd" d="M28 0c-9.941 0-18 8.059-18 18v90H8a6 6 0 1 0 0 12h66a6 6 0 1 0 0-12h-2V57h4a6 6 0 0 1 6 6v22c0 9.941 8.059 18 18 18s18-8.059 18-18h-.021c.014-.165.021-.332.021-.5V40.485c0-3.182-1.264-6.235-3.515-8.485l-5.742-5.743-12.5-12.5a6 6 0 1 0-8.486 8.486L98.5 32.985v7.087a12 12 0 0 0 3.377 8.345l4.123 4.26V84.5c0 .168.007.335.021.5H106a6 6 0 1 1-12 0V63c0-9.941-8.059-18-18-18h-4V18c0-9.941-8.059-18-18-18H28Zm32 108H22V57h38v51Zm0-63H22V18a6 6 0 0 1 6-6h26a6 6 0 0 1 6 6v27Z" clip-rule="evenodd"/>
</svg>
