<svg xmlns="http://www.w3.org/2000/svg" fill="currentColor" viewBox="0 0 96 96">
  <g clip-path="url(#a)">
    <path fill="#000" d="M16 42a6 6 0 0 1 6-6h16a6 6 0 0 1 0 12H22a6 6 0 0 1-6-6Z"/>
    <path fill="#000" fill-rule="evenodd" d="M0 18C0 8.059 8.059 0 18 0h24c9.941 0 18 8.059 18 18v18h2c9.941 0 18 8.059 18 18v14c0 1.495.49 2.65 1.028 3.323.53.662.912.677.972.677.06 0 .442-.015.972-.677C83.51 70.649 84 69.495 84 68V32.7L69.726 18.21a6 6 0 0 1 8.548-8.42l14.274 14.488A12 12 0 0 1 96 32.7V68c0 7.518-5.088 16-14 16-8.912 0-14-8.482-14-16V54a6 6 0 0 0-6-6h-2v30c0 9.941-8.059 18-18 18H18C8.059 96 0 87.941 0 78V18Zm48 0a6 6 0 0 0-6-6H18a6 6 0 0 0-6 6v60a6 6 0 0 0 6 6h24a6 6 0 0 0 6-6V18Z" clip-rule="evenodd"/>
  </g>
  <defs>
    <clipPath id="a">
      <rect width="96" height="96" fill="#fff"/>
    </clipPath>
  </defs>
</svg>
