<svg width="96" height="96" viewBox="0 0 96 96" fill="none" xmlns="http://www.w3.org/2000/svg">
<g clip-path="url(#clip0_2808_20795)">
<path fill-rule="evenodd" clip-rule="evenodd" d="M12 32V12H32V32H12ZM0 8C0 3.58172 3.58172 0 8 0H36C40.4183 0 44 3.58172 44 8V36C44 40.4183 40.4183 44 36 44H8C3.58172 44 0 40.4183 0 36V8ZM12 84V64H32V84H12ZM0 60C0 55.5817 3.58172 52 8 52H36C40.4183 52 44 55.5817 44 60V88C44 92.4183 40.4183 96 36 96H8C3.58172 96 0 92.4183 0 88V60ZM64 12V32H84V12H64ZM60 0C55.5817 0 52 3.58172 52 8V36C52 40.4183 55.5817 44 60 44H88C92.4183 44 96 40.4183 96 36V8C96 3.58172 92.4183 0 88 0H60ZM64 84V64H84V84H64ZM52 60C52 55.5817 55.5817 52 60 52H88C92.4183 52 96 55.5817 96 60V88C96 92.4183 92.4183 96 88 96H60C55.5817 96 52 92.4183 52 88V60Z" fill="black"/>
</g>
<defs>
<clipPath id="clip0_2808_20795">
<rect width="96" height="96" fill="white"/>
</clipPath>
</defs>
</svg>
