<svg xmlns="http://www.w3.org/2000/svg" fill="currentColor" viewBox="0 0 120 120">
  <g clip-path="url(#a)">
    <path fill="#000" d="M60 38.714C60.003 37.806 60.309 12 86.473 12c14.709 0 31.231 14.145 26.792 35.625-3.429 16.595-33.353 45.973-46.786 58.476a9.457 9.457 0 0 1-12.958 0C40.088 93.598 10.164 64.221 6.735 47.625 2.295 26.145 18.818 12 33.527 12 59.69 12 59.997 37.807 60 38.714Z" opacity=".35"/>
    <path fill="#000" fill-rule="evenodd" d="M33.527 18C22.2 18 9.024 29.054 12.61 46.411c.621 3.01 2.621 7.186 5.995 12.282 3.296 4.98 7.592 10.377 12.29 15.758 9.391 10.756 20.06 21.065 26.713 27.258 1.374 1.28 3.408 1.28 4.782 0 6.654-6.193 17.322-16.502 26.713-27.258 4.698-5.38 8.994-10.778 12.29-15.758 3.374-5.096 5.374-9.273 5.995-12.282C110.976 29.054 97.799 18 86.473 18c-5.603 0-9.393 1.389-12.025 3.158-2.671 1.795-4.522 4.233-5.815 6.86-1.304 2.65-1.979 5.376-2.317 7.49a26.876 26.876 0 0 0-.284 2.471 16.611 16.611 0 0 0-.032.743v.046c0 .003 0 .006-6-.03-6 .036-6 .033-6 .03v-.046l-.002-.12a16.611 16.611 0 0 0-.03-.623 26.876 26.876 0 0 0-.284-2.47c-.338-2.115-1.013-4.84-2.317-7.49-1.293-2.628-3.144-5.066-5.815-6.861C42.92 19.388 39.13 18 33.527 18ZM60 19.016c-1.896-2.83-4.416-5.574-7.755-7.818C47.417 7.953 41.24 6 33.527 6 15.435 6-4.432 23.237.859 48.84c1.093 5.288 4.119 11.006 7.74 16.477 3.7 5.587 8.367 11.426 13.258 17.027 9.786 11.208 20.797 21.839 27.576 28.149a15.458 15.458 0 0 0 21.134 0c6.78-6.31 17.79-16.941 27.576-28.149 4.891-5.6 9.559-11.44 13.257-17.027 3.622-5.47 6.648-11.19 7.741-16.477C124.432 23.236 104.565 6 86.473 6c-7.712 0-13.89 1.953-18.718 5.198-3.34 2.244-5.859 4.987-7.755 7.818Zm0 19.722-6 .036a6 6 0 0 0 12 0l-6-.036Z" clip-rule="evenodd"/>
  </g>
  <defs>
    <clipPath id="a">
      <rect width="120" height="120" fill="#fff"/>
    </clipPath>
  </defs>
</svg>
