<svg xmlns="http://www.w3.org/2000/svg" fill="currentColor" viewBox="0 0 96 96">
  <path fill="#000" d="M69.75 9C49.612 9 48 26.793 48 26.793S46.389 9 26.25 9C13.36 9 3.235 20.44 6.68 37.812c2.635 13.296 25.443 36.739 36 47.007a7.58 7.58 0 0 0 10.64 0c10.557-10.268 33.365-33.71 36-47.007C92.765 20.44 82.64 9 69.75 9Z" opacity=".35"/>
  <path fill="#000" fill-rule="evenodd" d="M15.15 21.393c-2.532 3.395-4.032 8.719-2.588 15.928.42 2.092 1.762 5.1 4.15 8.898 2.324 3.699 5.377 7.738 8.779 11.825 6.8 8.17 14.683 16.161 20.12 21.443 1.36 1.32 3.418 1.32 4.778 0 5.437-5.282 13.32-13.273 20.12-21.443 3.402-4.087 6.455-8.126 8.78-11.825 2.387-3.798 3.73-6.806 4.149-8.898 1.444-7.21-.056-12.533-2.587-15.928C78.317 17.996 74.379 16 69.75 16c-7.945 0-11.555 3.295-13.429 6.118-1.03 1.553-1.637 3.143-1.981 4.362-.17.6-.268 1.083-.32 1.388-.027.152-.041.256-.048.306l-.003.026a6 6 0 0 1-11.94 0l-.003-.026a7.596 7.596 0 0 0-.047-.306 14.078 14.078 0 0 0-.32-1.388c-.345-1.22-.952-2.81-1.982-4.362C37.804 19.295 34.194 16 26.249 16c-4.628 0-8.566 1.996-11.1 5.393ZM48 13.236C52.218 8.194 59.106 4 69.75 4c8.262 0 15.83 3.662 20.72 10.22 4.892 6.559 6.732 15.485 4.734 25.46-.85 4.235-3.11 8.716-5.756 12.926-2.71 4.31-6.122 8.797-9.716 13.115-7.19 8.64-15.415 16.966-20.982 22.374a15.374 15.374 0 0 1-21.5 0C31.683 82.687 23.46 74.36 16.268 65.72c-3.594-4.318-7.007-8.806-9.716-13.115-2.647-4.21-4.907-8.691-5.756-12.927-1.998-9.974-.158-18.9 4.734-25.46C10.42 7.662 17.988 4 26.25 4 36.893 4 43.781 8.194 48 13.236Z" clip-rule="evenodd"/>
</svg>
