<svg xmlns="http://www.w3.org/2000/svg" fill="currentColor" viewBox="0 0 96 96">
  <path fill="#000" fill-rule="evenodd" d="M88.243 23.757a5.989 5.989 0 0 1 1.717 4.94 5.975 5.975 0 0 1-1.717 3.546l-18 18a6 6 0 0 1-8.486-8.486L69.515 34H32a6 6 0 0 1 0-12h37.515l-7.758-7.757a6 6 0 1 1 8.486-8.486l18 18ZM7.757 72.243a5.99 5.99 0 0 1-1.717-4.939 5.974 5.974 0 0 1 1.717-3.547l18-18a6 6 0 1 1 8.486 8.486L26.485 62H64a6 6 0 0 1 0 12H26.485l7.758 7.757a6 6 0 1 1-8.486 8.486l-18-18Z" clip-rule="evenodd"/>
</svg>
