<svg xmlns="http://www.w3.org/2000/svg" fill="currentColor" viewBox="0 0 96 96">
  <g clip-path="url(#a)">
    <path fill="#000" d="M51.905 5.444a6 6 0 0 0-7.81 0l-42 36a6 6 0 1 0 7.81 9.111L48 17.903l38.095 32.654a6 6 0 1 0 7.81-9.111l-42-36Z"/>
    <path fill="#000" d="M28 58a6 6 0 0 0-12 0v16c0 9.941 8.059 18 18 18h28c9.941 0 18-8.059 18-18V58a6 6 0 0 0-12 0v16a6 6 0 0 1-6 6H34a6 6 0 0 1-6-6V58Z"/>
  </g>
  <defs>
    <clipPath id="a">
      <rect width="96" height="96" fill="#fff"/>
    </clipPath>
  </defs>
</svg>
