<svg xmlns="http://www.w3.org/2000/svg" fill="currentColor" viewBox="0 0 96 96">
  <g clip-path="url(#a)">
    <path fill="#000" d="M54 26a6 6 0 1 1-12 0 6 6 0 0 1 12 0Zm0 16a6 6 0 0 0-10.633-3.812c-.758.921-2.302 1.963-4.176 2.867a26.883 26.883 0 0 1-2.823 1.166l-.142.047-.02.006A6 6 0 0 0 39.78 53.73l-1.766-5.687c1.766 5.687 1.768 5.687 1.768 5.687l.003-.001.005-.002.012-.004.033-.01a18.325 18.325 0 0 0 .395-.13 32.899 32.899 0 0 0 1.771-.66V70a6 6 0 0 0 12 0V42Z"/>
    <path fill="#000" fill-rule="evenodd" d="M48 96c26.51 0 48-21.49 48-48S74.51 0 48 0 0 21.49 0 48s21.49 48 48 48Zm0-12c19.882 0 36-16.118 36-36S67.882 12 48 12 12 28.118 12 48s16.118 36 36 36Z" clip-rule="evenodd"/>
  </g>
  <defs>
    <clipPath id="a">
      <rect width="96" height="96" fill="#fff"/>
    </clipPath>
  </defs>
</svg>
