<svg xmlns="http://www.w3.org/2000/svg" fill="currentColor" viewBox="0 0 120 120">
  <g clip-path="url(#a)">
    <path fill="#000" fill-rule="evenodd" d="M60 108c26.51 0 48-21.49 48-48S86.51 12 60 12 12 33.49 12 60s21.49 48 48 48Zm0 12c33.137 0 60-26.863 60-60S93.137 0 60 0 0 26.863 0 60s26.863 60 60 60Zm6-90a6 6 0 1 1-12 0 6 6 0 0 1 12 0Zm0 20a6 6 0 0 0-10.243-4.243c-1.462 1.463-3.118 2.303-4.451 2.776-.659.234-1.205.365-1.553.435a6.385 6.385 0 0 1-.346.06l-.023.004a6 6 0 0 0 1.16 11.943l-.542-5.95c.541 5.95.543 5.95.546 5.95h.004l.01-.001.02-.002.047-.005a9.38 9.38 0 0 0 .454-.056c.264-.037.61-.093 1.023-.176A22.587 22.587 0 0 0 54 60.268V90a6 6 0 0 0 12 0V50Z" clip-rule="evenodd"/>
  </g>
  <defs>
    <clipPath id="a">
      <rect width="120" height="120" fill="#fff"/>
    </clipPath>
  </defs>
</svg>
