<svg xmlns="http://www.w3.org/2000/svg" fill="currentColor" viewBox="0 0 96 96">
  <path fill="#000" fill-rule="evenodd" d="M91.243 10.243a6 6 0 1 0-8.486-8.486L41.21 43.305A27.877 27.877 0 0 0 28 40C12.536 40 0 52.536 0 68s12.536 28 28 28 28-12.536 28-28a27.877 27.877 0 0 0-5.648-16.867L66.5 34.985l3.257 3.258a6 6 0 1 0 8.486-8.486L74.985 26.5l3.515-3.515 3.257 3.258a6 6 0 1 0 8.486-8.486L86.985 14.5l4.258-4.257ZM12 68c0-8.837 7.163-16 16-16s16 7.163 16 16-7.163 16-16 16-16-7.163-16-16Z" clip-rule="evenodd"/>
</svg>
