<svg xmlns="http://www.w3.org/2000/svg" fill="currentColor" viewBox="0 0 120 120">
  <path fill="#000" fill-rule="evenodd" d="M57.911 52.746 97.493 13H107v6.392l-3.225 3.369A10 10 0 0 0 101 29.675V36h-6.088A8.912 8.912 0 0 0 86 44.912V51h-4.979a10 10 0 0 0-7.225 3.086l-7.001 7.316c-2.855 2.983-3.376 7.123-2.218 10.504A26.458 26.458 0 0 1 66 80.5C66 95.136 54.136 107 39.5 107S13 95.136 13 80.5C13 65.865 24.864 54 39.5 54c2.788 0 5.464.428 7.972 1.218 3.406 1.073 7.528.451 10.44-2.472ZM96.661 1a10 10 0 0 0-7.085 2.944L50.181 43.503A38.517 38.517 0 0 0 39.5 42C18.237 42 1 59.237 1 80.5S18.237 119 39.5 119 78 101.763 78 80.5c0-4.031-.621-7.928-1.778-11.593L81.875 63H88c5.523 0 10-4.477 10-10v-5h5c5.523 0 10-4.477 10-10v-7.522l3.225-3.37A10 10 0 0 0 119 20.194V11c0-5.523-4.477-10-10-10H96.662ZM31 81a6 6 0 1 0 0-12 6 6 0 0 0 0 12Z" clip-rule="evenodd"/>
</svg>
