<svg xmlns="http://www.w3.org/2000/svg" fill="currentColor" viewBox="0 0 120 120">
  <path fill="#000" fill-rule="evenodd" d="M40 23a6 6 0 0 0-12 0v6h-9.86a5.847 5.847 0 0 0-.278 0H8a6 6 0 0 0 0 12h5.713c3.074 8.517 6.536 15.171 11.217 20.98l.091.113c-2.88 2.36-6.252 4.749-10.293 7.378a6 6 0 0 0 6.544 10.058c4.598-2.99 8.642-5.856 12.228-8.88 3.586 3.024 7.63 5.89 12.228 8.88a6 6 0 0 0 6.544-10.058c-4.041-2.63-7.412-5.017-10.293-7.378l.091-.113c4.681-5.809 8.143-12.463 11.216-20.98H59a6 6 0 0 0 0-12h-9.862a5.847 5.847 0 0 0-.278 0H40v-6Zm-6.5 30.462c-2.6-3.42-4.828-7.382-6.928-12.462h13.856c-2.1 5.08-4.328 9.041-6.928 12.462Zm60.677-2.631c-2.636-4.941-9.718-4.941-12.354 0L67.24 78.177l-8.533 16a6 6 0 1 0 10.588 5.646L76.134 87h23.733l6.839 12.823a6 6 0 1 0 10.588-5.646l-8.533-16L94.177 50.83ZM88 64.75 93.467 75H82.533L88 64.75Z" clip-rule="evenodd"/>
</svg>
