<svg xmlns="http://www.w3.org/2000/svg" fill="currentColor" viewBox="0 0 96 96">
  <g clip-path="url(#a)">
    <path fill="#000" fill-rule="evenodd" d="M32 18a6 6 0 0 0-12 0v6h-5.86a6.126 6.126 0 0 0-.278 0H6a6 6 0 0 0 0 12h3.712c2.253 6.237 4.715 11.368 8.034 15.918-1.975 1.619-4.277 3.27-7.018 5.053a6 6 0 0 0 6.544 10.058c3.264-2.123 6.15-4.197 8.728-6.367 2.577 2.17 5.464 4.244 8.728 6.367a6 6 0 0 0 6.544-10.058c-2.74-1.783-5.043-3.434-7.018-5.053 3.319-4.55 5.78-9.68 8.034-15.918H46a6 6 0 0 0 0-12h-7.862a6.126 6.126 0 0 0-.278 0H32v-6Zm-6 24.71c-1.213-1.947-2.326-4.136-3.413-6.71h6.826c-1.087 2.574-2.2 4.763-3.413 6.71Zm50.158-2.936c-2.646-4.895-9.67-4.895-12.316 0l-19.12 35.373a6 6 0 1 0 10.556 5.706L57.901 76h24.197l2.624 4.853a6 6 0 1 0 10.556-5.706l-19.12-35.373ZM70 53.618 75.612 64H64.388L70 53.618Z" clip-rule="evenodd"/>
  </g>
  <defs>
    <clipPath id="a">
      <rect width="96" height="96" fill="#fff"/>
    </clipPath>
  </defs>
</svg>
