<svg xmlns="http://www.w3.org/2000/svg" fill="currentColor" viewBox="0 0 96 96">
  <g clip-path="url(#a)">
    <path fill="#000" fill-rule="evenodd" d="M96 48c0 26.51-21.49 48-48 48S0 74.51 0 48 21.49 0 48 0s48 21.49 48 48Zm-12 0a35.836 35.836 0 0 1-6.656 20.86l-8.667-8.668A23.89 23.89 0 0 0 72 48c0-4.46-1.217-8.637-3.337-12.215l8.666-8.666A35.835 35.835 0 0 1 84 48ZM68.837 18.64A35.836 35.836 0 0 0 48 12a35.836 35.836 0 0 0-20.86 6.655l8.668 8.668A23.89 23.89 0 0 1 48 24c4.441 0 8.6 1.206 12.168 3.31l8.67-8.67ZM48 84a35.836 35.836 0 0 0 20.86-6.656l-8.668-8.667A23.89 23.89 0 0 1 48 72c-4.46 0-8.637-1.217-12.215-3.337l-8.666 8.666A35.835 35.835 0 0 0 48 84ZM18.64 68.837A35.836 35.836 0 0 1 12 48a35.836 35.836 0 0 1 6.655-20.86l8.668 8.668A23.89 23.89 0 0 0 24 48c0 4.441 1.206 8.6 3.31 12.168l-8.67 8.67ZM36 48c0-6.627 5.373-12 12-12s12 5.373 12 12-5.373 12-12 12-12-5.373-12-12Z" clip-rule="evenodd"/>
  </g>
  <defs>
    <clipPath id="a">
      <rect width="96" height="96" fill="#fff"/>
    </clipPath>
  </defs>
</svg>
