<svg xmlns="http://www.w3.org/2000/svg" fill="currentColor" viewBox="0 0 120 120">
  <g clip-path="url(#a)">
    <path fill="#000" fill-rule="evenodd" d="M108 60a47.857 47.857 0 0 1-3.798 18.746l-12.76-12.76A32.17 32.17 0 0 0 92 60c0-2.046-.192-4.046-.559-5.985l12.761-12.76A47.856 47.856 0 0 1 108 60ZM97.92 30.566a48.286 48.286 0 0 0-8.486-8.485L77.986 33.529a32.178 32.178 0 0 1 8.485 8.485l11.448-11.448ZM65.984 28.56l12.76-12.76A47.846 47.846 0 0 0 60 12a47.846 47.846 0 0 0-18.746 3.798l12.76 12.76A32.17 32.17 0 0 1 60 28c2.046 0 4.046.192 5.985.559ZM86.47 77.987l11.448 11.448a48.282 48.282 0 0 1-8.485 8.485L77.986 86.471a32.176 32.176 0 0 0 8.485-8.485ZM60 108a47.857 47.857 0 0 0 18.746-3.798l-12.76-12.76c-1.94.366-3.94.558-5.986.558s-4.046-.192-5.985-.559l-12.76 12.761A47.856 47.856 0 0 0 60 108ZM30.566 97.92l11.448-11.45a32.178 32.178 0 0 1-8.485-8.485L22.081 89.434a48.286 48.286 0 0 0 8.485 8.485ZM15.798 78.745A47.846 47.846 0 0 1 12 60a47.846 47.846 0 0 1 3.798-18.746l12.76 12.76A32.169 32.169 0 0 0 28 60c0 2.046.192 4.046.559 5.985l-12.76 12.76Zm26.216-45.217a32.176 32.176 0 0 0-8.485 8.485L22.081 30.566a48.282 48.282 0 0 1 8.485-8.485l11.448 11.448ZM120 60c0 33.137-26.863 60-60 60S0 93.137 0 60 26.863 0 60 0s60 26.863 60 60Zm-80 0c0-11.046 8.954-20 20-20s20 8.954 20 20-8.954 20-20 20-20-8.954-20-20Z" clip-rule="evenodd"/>
  </g>
  <defs>
    <clipPath id="a">
      <rect width="120" height="120" fill="#fff"/>
    </clipPath>
  </defs>
</svg>
