<svg xmlns="http://www.w3.org/2000/svg" fill="currentColor" viewBox="0 0 96 96">
  <path fill="#000" d="m49.757 53.272-1.514-1.515a6 6 0 1 0-8.486 8.486l1.515 1.514c7.03 7.03 18.427 7.03 25.456 0l23.03-23.029c7.029-7.03 7.029-18.427 0-25.456l-6.03-6.03c-7.03-7.029-18.426-7.029-25.456 0l-9.515 9.515a6 6 0 1 0 8.486 8.486l9.514-9.515a6 6 0 0 1 8.486 0l6.03 6.03a6 6 0 0 1 0 8.485l-23.03 23.03a6 6 0 0 1-8.486 0Z"/>
  <path fill="#000" d="m46.243 42.728 1.514 1.515a6 6 0 0 0 8.486-8.486l-1.515-1.514c-7.03-7.03-18.427-7.03-25.456 0l-23.03 23.03c-7.029 7.029-7.029 18.425 0 25.455l6.03 6.03c7.03 7.029 18.427 7.029 25.456 0l9.515-9.515a6 6 0 1 0-8.486-8.486l-9.514 9.515a6 6 0 0 1-8.486 0l-6.03-6.03a6 6 0 0 1 0-8.485l23.03-23.03a6 6 0 0 1 8.486 0Z"/>
</svg>
