<svg xmlns="http://www.w3.org/2000/svg" fill="currentColor" viewBox="0 0 96 96">
  <path fill="#000" d="M48 56a6 6 0 0 1 6 6v4a6 6 0 0 1-12 0v-4a6 6 0 0 1 6-6Z"/>
  <path fill="#000" fill-rule="evenodd" d="M48 0C34.745 0 24 10.745 24 24v8.11C15 33.105 8 40.735 8 50v28c0 9.941 8.059 18 18 18h44c9.941 0 18-8.059 18-18V50c0-9.265-7-16.895-16-17.89V24C72 10.745 61.255 0 48 0Zm12 32v-8c0-6.627-5.373-12-12-12s-12 5.373-12 12v8h24ZM26 44a6 6 0 0 0-6 6v28a6 6 0 0 0 6 6h44a6 6 0 0 0 6-6V50a6 6 0 0 0-6-6H26Z" clip-rule="evenodd"/>
</svg>
