<svg xmlns="http://www.w3.org/2000/svg" fill="currentColor" viewBox="0 0 120 120">
  <path fill="#000" fill-rule="evenodd" d="M60 5C42.327 5 28 19.327 28 37v5.124C20.107 43.108 14 49.84 14 58v41c0 8.837 7.163 16 16 16h60c8.837 0 16-7.163 16-16V58c0-8.16-6.107-14.892-14-15.876V37C92 19.327 77.673 5 60 5Zm20 37v-5c0-11.046-8.954-20-20-20s-20 8.954-20 20v5h40ZM30 54a4 4 0 0 0-4 4v41a4 4 0 0 0 4 4h60a4 4 0 0 0 4-4V58a4 4 0 0 0-4-4H30Zm30 14a6 6 0 0 1 6 6v10a6 6 0 0 1-12 0V74a6 6 0 0 1 6-6Z" clip-rule="evenodd"/>
</svg>
