<svg xmlns="http://www.w3.org/2000/svg" fill="currentColor" viewBox="0 0 120 120">
  <path fill="#000" d="M66 50c0-8.837-7.163-16-16-16a6 6 0 0 1 0-12c15.464 0 28 12.536 28 28a6 6 0 0 1-12 0Z"/>
  <path fill="#000" fill-rule="evenodd" d="M89.344 80.859A49.786 49.786 0 0 0 100 50c0-27.614-22.386-50-50-50S0 22.386 0 50s22.386 50 50 50c11.645 0 22.36-3.98 30.859-10.656l24.377 24.377a6 6 0 0 0 8.485-8.485L89.344 80.859ZM50 88c20.987 0 38-17.013 38-38S70.987 12 50 12 12 29.013 12 50s17.013 38 38 38Z" clip-rule="evenodd"/>
</svg>
