<svg xmlns="http://www.w3.org/2000/svg" fill="currentColor" viewBox="0 0 120 120">
  <path fill="#000" fill-rule="evenodd" d="M24 50.18C24 28.803 40.4 12 60 12s36 16.804 36 38.18c0 14.89-9.114 29.298-19.284 40.593-4.984 5.536-10.002 10.082-13.812 13.278-1.174.984-2.23 1.838-3.131 2.551a97.608 97.608 0 0 1-2.708-2.163 128.613 128.613 0 0 1-13.76-13.274C33.137 79.752 24 65.093 24 50.179Zm31.651 59.68c.18-.189.363-.358.549-.511l-.06.049-.003.004c-.041.035-.252.213-.486.458ZM60 0C33.208 0 12 22.756 12 50.18c0 19.448 11.63 36.94 22.345 48.968a140.61 140.61 0 0 0 15.071 14.537c2.074 1.716 3.851 3.071 5.17 4.008.646.459 1.245.863 1.746 1.168.226.137.572.341.957.522.156.073.58.269 1.137.415a6.13 6.13 0 0 0 1.648.201c.574-.009 2.241-.115 3.767-1.394l.309-.232a149.565 149.565 0 0 0 6.466-5.128c4.108-3.446 9.56-8.381 15.018-14.442C96.347 86.904 108 69.649 108 50.179 108 22.756 86.792 0 60 0Zm-8 48a8 8 0 1 1 16 0 8 8 0 0 1-16 0Zm8-20c-11.046 0-20 8.954-20 20s8.954 20 20 20 20-8.954 20-20-8.954-20-20-20Z" clip-rule="evenodd"/>
</svg>
