<svg xmlns="http://www.w3.org/2000/svg" fill="currentColor" viewBox="0 0 96 96">
  <path fill="#000" fill-rule="evenodd" d="M48 20c-9.941 0-18 8.059-18 18s8.059 18 18 18 18-8.059 18-18-8.059-18-18-18Zm-6 18a6 6 0 1 1 12 0 6 6 0 0 1-12 0Z" clip-rule="evenodd"/>
  <path fill="#000" fill-rule="evenodd" d="M48 0C26.235 0 9 18.302 9 40.362c0 15.652 9.428 29.58 17.903 38.996a111.319 111.319 0 0 0 11.985 11.444 73.582 73.582 0 0 0 4.136 3.174c.52.366 1.019.699 1.449.958.19.115.508.3.872.47.145.067.56.258 1.106.4a6.04 6.04 0 0 0 5.347-1.162l.21-.157a118.055 118.055 0 0 0 5.135-4.032c3.26-2.706 7.593-6.586 11.933-11.358C77.548 69.78 87 56.036 87 40.362 87 18.302 69.766 0 48 0ZM21 40.362C21 24.467 33.315 12 48 12s27 12.467 27 28.362c0 11.051-6.865 21.933-14.801 30.658-3.864 4.249-7.76 7.742-10.721 10.201-.597.496-1.155.949-1.666 1.356a79.24 79.24 0 0 1-1.322-1.06A99.3 99.3 0 0 1 35.822 71.33C27.888 62.515 21 51.435 21 40.362Zm22.672 45.477a6.102 6.102 0 0 1 .488-.455l-.004.004c-.04.033-.25.208-.483.451Zm7.013-1.172-.017-.01a.598.598 0 0 0 .015.009h.002Z" clip-rule="evenodd"/>
</svg>
