<svg xmlns="http://www.w3.org/2000/svg" fill="currentColor" viewBox="0 0 120 120">
  <path fill="#000" fill-rule="evenodd" d="M94.065 5.452c-2.255-6.094-10.875-6.094-13.13 0l-5.532 14.95-14.95 5.533c-6.095 2.255-6.095 10.875 0 13.13l14.95 5.532 5.532 14.95c2.255 6.095 10.875 6.095 13.13 0l5.532-14.95 14.951-5.532c6.094-2.255 6.094-10.875 0-13.13l-14.95-5.532-5.533-14.95Zm-8.206 21.272 1.641-4.435 1.64 4.434a7 7 0 0 0 4.136 4.136l4.435 1.641-4.434 1.64a7 7 0 0 0-4.136 4.137L87.5 42.71l-1.64-4.434a7 7 0 0 0-4.136-4.136l-4.436-1.64 4.434-1.64a7 7 0 0 0 4.136-4.136Z" clip-rule="evenodd"/>
  <path fill="#000" fill-rule="evenodd" d="M42.776 16.415c2.344-3.7 1.681-8.001-.369-10.81-1.056-1.446-2.682-2.787-4.843-3.358-2.282-.603-4.636-.2-6.633 1.02C12.994 14.22 1 33.995 1 56.577 1 91.052 28.948 119 63.423 119c23.014 0 43.112-12.457 53.93-30.967 1.18-2.02 1.537-4.382.891-6.65-.612-2.15-1.984-3.75-3.451-4.778-2.847-1.996-7.161-2.575-10.814-.16-6.92 4.574-15.209 7.237-24.138 7.237C55.628 83.682 36 64.053 36 39.84c0-8.626 2.485-16.653 6.776-23.426ZM13 56.577c0-13.536 5.33-25.829 14.02-34.891A55.767 55.767 0 0 0 24 39.84c0 30.84 25 55.84 55.84 55.84a55.739 55.739 0 0 0 19.167-3.377C89.883 101.391 77.307 107 63.423 107 35.575 107 13 84.425 13 56.577Z" clip-rule="evenodd"/>
</svg>
