<svg xmlns="http://www.w3.org/2000/svg" fill="currentColor" viewBox="0 0 96 96">
  <g clip-path="url(#a)">
    <path fill="#000" d="M76 6a6 6 0 0 0-12 0v8a6 6 0 0 0 12 0V6Zm0 32a6 6 0 0 0-12 0v8a6 6 0 0 0 12 0v-8Z"/>
    <path fill="#000" fill-rule="evenodd" d="M31.438 8.117a8.158 8.158 0 0 1 2.68 8.252A37.596 37.596 0 0 0 33 25.5C33 46.21 49.79 63 70.5 63c3.157 0 6.214-.389 9.13-1.118a8.158 8.158 0 0 1 8.253 2.68c1.942 2.328 2.665 6.005.595 9.245C79.963 87.14 65.018 96 48 96 21.49 96 0 74.51 0 48 0 30.982 8.861 16.037 22.193 7.522c3.24-2.07 6.917-1.347 9.245.595Zm-10.42 16.05A35.858 35.858 0 0 0 12 48c0 19.882 16.118 36 36 36a35.858 35.858 0 0 0 23.834-9.018c-.444.012-.888.018-1.334.018C43.162 75 21 52.838 21 25.5c0-.446.006-.89.018-1.334Z" clip-rule="evenodd"/>
    <path fill="#000" d="M96 26a6 6 0 0 1-6 6h-8a6 6 0 0 1 0-12h8a6 6 0 0 1 6 6Zm-32 0a6 6 0 0 1-6 6h-8a6 6 0 0 1 0-12h8a6 6 0 0 1 6 6Z"/>
  </g>
  <defs>
    <clipPath id="a">
      <rect width="96" height="96" fill="#fff"/>
    </clipPath>
  </defs>
</svg>
