<svg xmlns="http://www.w3.org/2000/svg" fill="currentColor" viewBox="0 0 96 96">
  <path fill="#000" d="M54 6a6 6 0 0 0-12 0v8a6 6 0 0 0 12 0V6Z"/>
  <path fill="#000" d="M88 26c0-9.941-8.059-18-18-18h-4a6 6 0 0 0 0 12h4a6 6 0 0 1 6 6v52a6 6 0 0 1-6 6H26a6 6 0 0 1-6-6V26a6 6 0 0 1 6-6h4a6 6 0 0 0 0-12h-4C16.059 8 8 16.059 8 26v52c0 9.941 8.059 18 18 18h44c9.941 0 18-8.059 18-18V26Z"/>
  <path fill="#000" fill-rule="evenodd" d="M48 24c-8.837 0-16 7.163-16 16s7.163 16 16 16 16-7.163 16-16-7.163-16-16-16Zm-4 16a4 4 0 1 1 8 0 4 4 0 0 1-8 0Z" clip-rule="evenodd"/>
  <path fill="#000" d="M42.106 73.05c-1.094.489-1.673 1.014-1.968 1.295a6 6 0 0 1-8.276-8.69C33.92 63.695 38.697 60 48 60s14.08 3.695 16.138 5.655a6 6 0 1 1-8.276 8.69c-.295-.281-.874-.806-1.968-1.295C52.786 72.556 50.925 72 48 72c-2.925 0-4.786.556-5.894 1.05Z"/>
</svg>
