<svg xmlns="http://www.w3.org/2000/svg" fill="currentColor" viewBox="0 0 120 120">
  <path fill="#000" fill-rule="evenodd" d="M74 6a6 6 0 0 0-12 0v2h-4V6a6 6 0 0 0-12 0v4c0 5.523 4.477 10 10 10h8c5.523 0 10-4.477 10-10V6Zm30 16c0-8.837-7.163-16-16-16h-3a6 6 0 0 0 0 12h3a4 4 0 0 1 4 4v82a4 4 0 0 1-4 4H32a4 4 0 0 1-4-4V22a4 4 0 0 1 4-4h3a6 6 0 0 0 0-12h-3c-8.837 0-16 7.163-16 16v82c0 8.837 7.163 16 16 16h56c8.837 0 16-7.163 16-16V22ZM60 54a6 6 0 1 0 0-12 6 6 0 0 0 0 12Zm0 12c9.941 0 18-8.059 18-18s-8.059-18-18-18-18 8.059-18 18 8.059 18 18 18ZM45.283 91.845C47.135 88.405 51.21 82 60 82c8.79 0 12.865 6.405 14.717 9.845a6 6 0 1 0 10.566-5.69C83.135 82.166 76.01 70 60 70S36.865 82.166 34.717 86.155a6 6 0 1 0 10.566 5.69Z" clip-rule="evenodd"/>
</svg>
