<svg xmlns="http://www.w3.org/2000/svg" fill="currentColor" viewBox="0 0 120 120">
  <g clip-path="url(#a)">
    <path fill="#000" d="M91 40a6 6 0 0 0 12 0V29h11a6 6 0 1 0 0-12h-11V6a6 6 0 1 0-12 0v11H80a6 6 0 0 0 0 12h11v11Z"/>
    <path fill="#000" fill-rule="evenodd" d="M76 51c0 16.016-12.984 29-29 29S18 67.016 18 51s12.984-29 29-29 29 12.984 29 29Zm-12 0c0 9.389-7.611 17-17 17s-17-7.611-17-17 7.611-17 17-17 17 7.611 17 17Z" clip-rule="evenodd"/>
    <path fill="#000" d="M11.09 117.176C14.844 111.162 24.752 97 47 97c22.249 0 32.157 14.162 35.91 20.176a6 6 0 1 0 10.181-6.352C88.643 103.695 75.59 85 47 85S5.357 103.695.91 110.824a6 6 0 1 0 10.18 6.352Z"/>
  </g>
  <defs>
    <clipPath id="a">
      <rect width="120" height="120" fill="#fff"/>
    </clipPath>
  </defs>
</svg>
