<svg xmlns="http://www.w3.org/2000/svg" fill="currentColor" viewBox="0 0 96 96">
  <g clip-path="url(#a)">
    <path fill="#000" d="M72 6a6 6 0 0 1 12 0v6h6a6 6 0 0 1 0 12h-6v6a6 6 0 0 1-12 0v-6h-6a6 6 0 0 1 0-12h6V6Z"/>
    <path fill="#000" fill-rule="evenodd" d="M60 38c0 12.15-9.85 22-22 22s-22-9.85-22-22 9.85-22 22-22 22 9.85 22 22Zm-12 0c0 5.523-4.477 10-10 10s-10-4.477-10-10 4.477-10 10-10 10 4.477 10 10Z" clip-rule="evenodd"/>
    <path fill="#000" d="M10.915 93.44C13.621 89.577 21.003 80 38 80c16.996 0 24.38 9.576 27.085 13.44a6 6 0 0 0 9.83-6.88C71.221 81.28 60.683 68 38 68 15.316 68 4.78 81.281 1.085 86.56a6 6 0 0 0 9.83 6.88Z"/>
  </g>
  <defs>
    <clipPath id="a">
      <rect width="96" height="96" fill="#fff"/>
    </clipPath>
  </defs>
</svg>
