<svg xmlns="http://www.w3.org/2000/svg" fill="currentColor" viewBox="0 0 96 96">
  <g clip-path="url(#a)">
    <circle cx="48" cy="28" r="22" fill="#000" opacity=".35"/>
    <path fill="#000" fill-rule="evenodd" d="M76 28c0 15.464-12.536 28-28 28S20 43.464 20 28 32.536 0 48 0s28 12.536 28 28Zm-12 0c0 8.837-7.163 16-16 16s-16-7.163-16-16 7.163-16 16-16 16 7.163 16 16Z" clip-rule="evenodd"/>
    <path fill="#000" d="M12.915 93.44C16.421 88.434 26.044 76 48 76c21.957 0 31.58 12.433 35.085 17.44a6 6 0 0 0 9.83-6.88C88.421 80.137 75.643 64 48 64S7.58 80.138 3.085 86.56a6 6 0 0 0 9.83 6.88Z"/>
  </g>
  <defs>
    <clipPath id="a">
      <rect width="96" height="96" fill="#fff"/>
    </clipPath>
  </defs>
</svg>
