<svg xmlns="http://www.w3.org/2000/svg" fill="currentColor" viewBox="0 0 96 96">
  <g clip-path="url(#a)">
    <path fill="#000" d="M48 22a6 6 0 0 1 6 6v14h14a6 6 0 0 1 0 12H54v14a6 6 0 0 1-12 0V54H28a6 6 0 0 1 0-12h14V28a6 6 0 0 1 6-6Z"/>
    <path fill="#000" fill-rule="evenodd" d="M48 96c26.51 0 48-21.49 48-48S74.51 0 48 0 0 21.49 0 48s21.49 48 48 48Zm0-12c19.882 0 36-16.118 36-36S67.882 12 48 12 12 28.118 12 48s16.118 36 36 36Z" clip-rule="evenodd"/>
  </g>
  <defs>
    <clipPath id="a">
      <rect width="96" height="96" fill="#fff"/>
    </clipPath>
  </defs>
</svg>
