<svg xmlns="http://www.w3.org/2000/svg" fill="currentColor" viewBox="0 0 96 96">
  <g>
    <path fill="#000" d="M42.951 33.266C42.486 33.672 42 34.396 42 36a6 6 0 0 1-12 0c0-4.395 1.514-8.673 5.049-11.765C38.479 21.233 43.066 20 48 20c4.934 0 9.521 1.233 12.951 4.235C64.486 27.326 66 31.605 66 36c0 4.089-1.055 7.432-3.112 10.117-1.913 2.498-4.359 3.937-5.865 4.816-1.831 1.068-2.369 1.391-2.74 1.793a.13.13 0 0 1-.009.009C54.22 52.783 54 52.976 54 54a6 6 0 0 1-12 0c0-3.9 1.247-7.009 3.466-9.413 1.688-1.829 3.846-3.065 5.115-3.792.144-.082.277-.158.396-.228 1.494-.871 2.048-1.306 2.385-1.747.193-.252.638-.909.638-2.82 0-1.605-.486-2.327-.951-2.734C52.479 32.766 51.066 32 48 32c-3.066 0-4.479.767-5.049 1.266ZM48 76a6 6 0 1 0 0-12 6 6 0 0 0 0 12Z"/>
    <path fill="#000" fill-rule="evenodd" d="M48 96c26.51 0 48-21.49 48-48S74.51 0 48 0 0 21.49 0 48s21.49 48 48 48Zm0-12c19.882 0 36-16.118 36-36S67.882 12 48 12 12 28.118 12 48s16.118 36 36 36Z" clip-rule="evenodd"/>
  </g>
</svg>
