<svg xmlns="http://www.w3.org/2000/svg" fill="currentColor" viewBox="0 0 120 120">
  <g clip-path="url(#a)">
    <path fill="#000" fill-rule="evenodd" d="M60 108c26.51 0 48-21.49 48-48S86.51 12 60 12 12 33.49 12 60s21.49 48 48 48Zm0 12c33.137 0 60-26.863 60-60S93.137 0 60 0 0 26.863 0 60s26.863 60 60 60Zm-6.71-81.518C51.935 39.91 51 42.107 51 45a6 6 0 0 1-12 0c0-5.502 1.815-10.805 5.585-14.778C48.402 26.2 53.789 24 60 24c6.21 0 11.598 2.2 15.415 6.222C79.185 34.195 81 39.498 81 45c0 4.656-1.31 8.364-3.405 11.4-1.964 2.848-4.497 4.895-6.336 6.373C67.21 66.028 66 67.166 66 70a6 6 0 0 1-12 0c0-8.828 5.652-13.325 9.18-16.132v-.001l.002-.001.559-.446c1.911-1.537 3.128-2.604 3.976-3.833C68.435 48.545 69 47.212 69 45c0-2.893-.935-5.09-2.29-6.518C65.402 37.103 63.29 36 60 36s-5.402 1.103-6.71 2.482ZM60 96a6 6 0 1 0 0-12 6 6 0 0 0 0 12Z" clip-rule="evenodd"/>
  </g>
  <defs>
    <clipPath id="a">
      <rect width="120" height="120" fill="#fff"/>
    </clipPath>
  </defs>
</svg>
