<svg xmlns="http://www.w3.org/2000/svg" fill="currentColor" viewBox="0 0 96 96">
  <path fill="#000" d="M32 28c0-4.44 1.232-7.098 3.037-8.74C36.942 17.528 40.499 16 47 16c6.487 0 10.754 1.525 13.271 3.522C62.609 21.376 64 24.067 64 28c0 4.436-1.107 6.842-2.336 8.426-1.382 1.784-3.337 3.102-6.213 4.8l-.804.47c-2.502 1.46-5.844 3.408-8.445 6.203C42.97 51.371 41 55.903 41 62a6 6 0 0 0 12 0c0-3.189.905-4.764 1.986-5.926 1.333-1.432 3.126-2.489 5.983-4.172l.58-.342c2.873-1.695 6.67-4.002 9.6-7.781C74.231 39.8 76 34.707 76 28c0-7.21-2.775-13.52-8.271-17.88C62.412 5.904 55.179 4 47 4c-8.166 0-15.109 1.9-20.037 6.383C21.935 14.954 20 21.297 20 28a6 6 0 0 0 12 0Zm16 64a6 6 0 1 0 0-12 6 6 0 0 0 0 12Z"/>
</svg>
