<svg xmlns="http://www.w3.org/2000/svg" fill="currentColor" viewBox="0 0 120 120">
  <path fill="#000" d="M55.13 37.443C54.39 38.1 54 38.954 54 40a6 6 0 0 1-12 0c0-4.411 1.81-8.557 5.17-11.535C50.503 25.508 55.003 24 60 24s9.496 1.508 12.83 4.465C76.19 31.443 78 35.589 78 40c0 3.111-.714 5.722-2.05 8.03-1.21 2.09-2.824 3.704-3.985 4.866l-.24.24c-2.254 2.25-4.385 4.38-6.107 8.97a6 6 0 1 1-11.236-4.213c2.639-7.037 6.276-10.666 8.815-13.2l.248-.248c1.273-1.273 1.796-1.868 2.12-2.428.211-.364.435-.879.435-2.017 0-1.046-.39-1.9-1.13-2.557C64.103 36.764 62.603 36 60 36s-4.104.764-4.87 1.443ZM66 79a6 6 0 1 1-12 0 6 6 0 0 1 12 0Z"/>
  <path fill="#000" fill-rule="evenodd" d="M60 107c33.137 0 60-23.505 60-52.5S93.137 2 60 2 0 25.505 0 54.5c0 14.012 6.274 26.743 16.498 36.157C18.04 92.08 19 94.047 19 96.145v14.483c0 5.215 5.497 8.599 10.153 6.25l19.009-9.59c1.282-.647 2.732-.873 4.16-.714 2.514.281 5.077.426 7.678.426Zm48-52.5C108 75.412 88.065 95 60 95c-2.156 0-4.273-.12-6.345-.352-3.54-.395-7.36.14-10.899 1.926L31 102.505v-6.36c0-5.815-2.643-10.88-6.373-14.315C16.572 74.413 12 64.773 12 54.5 12 33.587 31.935 14 60 14s48 19.587 48 40.5Z" clip-rule="evenodd"/>
</svg>
