<svg xmlns="http://www.w3.org/2000/svg" fill="currentColor" viewBox="0 0 96 96">
  <g clip-path="url(#a)">
    <path fill="#000" fill-rule="evenodd" d="M44.017 33.972c-.013.034-.017.045-.017.028a6 6 0 0 1-12 0c0-7.69 6.996-14 16-14s16 6.31 16 14c0 3.485-.992 6.44-2.891 8.795-1.774 2.2-3.981 3.413-5.456 4.14-.408.201-1.003.477-1.437.678l-.47.22-.037.017A6 6 0 0 1 42 46c.001-3.848 2.19-6.284 4.162-7.642.872-.6 1.769-1.046 2.421-1.358.398-.19.665-.312.9-.42.28-.127.513-.234.865-.408 1.025-.505 1.318-.782 1.42-.909a.612.612 0 0 0 .107-.213c.046-.138.126-.458.126-1.05 0 .017-.004.006-.017-.028C51.885 33.703 51.258 32 48 32s-3.884 1.703-3.983 1.972Zm8.947 14.272c-.007.005-.007.005 0 0Z" clip-rule="evenodd"/>
    <path fill="#000" d="M54 62a6 6 0 1 1-12 0 6 6 0 0 1 12 0Z"/>
    <path fill="#000" fill-rule="evenodd" d="M48 88c26.51 0 48-19.7 48-44S74.51 0 48 0 0 19.7 0 44c0 12.22 5.435 23.278 14.21 31.25 1.108 1.007 1.79 2.414 1.79 3.912v10.87c0 3.688 3.854 6.106 7.174 4.503l13.846-6.687a5.27 5.27 0 0 1 3.085-.44c2.569.39 5.206.592 7.895.592Zm36-44c0 16.712-15.114 32-36 32a40.63 40.63 0 0 1-6.095-.457c-3.246-.492-6.794-.099-10.103 1.5l-3.804 1.836c-.084-5.078-2.413-9.507-5.718-12.51C15.769 60.453 12 52.53 12 44c0-16.712 15.113-32 36-32 20.886 0 36 15.288 36 32Z" clip-rule="evenodd"/>
  </g>
  <defs>
    <clipPath id="a">
      <rect width="96" height="96" fill="#fff"/>
    </clipPath>
  </defs>
</svg>
