<svg xmlns="http://www.w3.org/2000/svg" fill="currentColor" viewBox="0 0 120 120">
  <path fill="#000" fill-rule="evenodd" d="M34 43.5C34 20.028 53.028 1 76.5 1c3.943 0 7.77.539 11.407 1.55 7.9 2.196 8.587 11.442 3.965 16.064L76 34.485V44h9.515l15.871-15.872c4.622-4.622 13.868-3.935 16.064 3.965A42.543 42.543 0 0 1 119 43.5C119 66.972 99.972 86 76.5 86c-3.96 0-7.803-.543-11.452-1.562l-28.305 28.305c-8.143 8.142-21.344 8.142-29.486 0s-8.142-21.343 0-29.486l28.305-28.305A42.532 42.532 0 0 1 34 43.5ZM76.5 13C59.655 13 46 26.655 46 43.5c0 3.506.59 6.862 1.67 9.982 1.053 3.045.117 6.217-1.927 8.26l-30 30a8.849 8.849 0 0 0 0 12.515 8.85 8.85 0 0 0 12.514 0l30-30L62.5 78.5l-4.243-4.243c2.044-2.044 5.216-2.98 8.261-1.926A30.448 30.448 0 0 0 76.5 74C93.345 74 107 60.345 107 43.5c0-1.283-.079-2.545-.232-3.783L93.414 53.071A10 10 0 0 1 86.344 56H74c-5.523 0-10-4.477-10-10V33.657a10 10 0 0 1 2.929-7.071l13.354-13.354A30.867 30.867 0 0 0 76.5 13Z" clip-rule="evenodd"/>
</svg>
