<svg xmlns="http://www.w3.org/2000/svg" fill="currentColor" viewBox="0 0 96 96">
  <path fill="#000" fill-rule="evenodd" d="M36.16 1.797c3.055 1.83 5.04 5.222 5.04 9.049v16.875l6.8 4.387 6.8-4.387V10.846c0-3.827 1.985-7.218 5.04-9.049 3.184-1.907 7.414-2 10.877.587C79.982 9.302 86 20.373 86 32.848c0 15.437-9.204 28.712-22.4 34.659V89.6a6 6 0 0 1-12 0V66.907c0-4.841 3.139-8.606 6.876-10.254C67.63 52.617 74 43.47 74 32.848a25.9 25.9 0 0 0-7.2-17.96v13.487a10.8 10.8 0 0 1-4.945 9.075l-8 5.161a10.8 10.8 0 0 1-11.71 0l-8-5.16a10.8 10.8 0 0 1-4.945-9.076V14.887A25.9 25.9 0 0 0 22 32.848c0 10.19 5.86 19.021 14.422 23.288 3.504 1.746 6.378 5.407 6.378 10.028V89.6a6 6 0 0 1-12 0V66.74C18.469 60.472 10 47.654 10 32.848c0-12.475 6.018-23.546 15.283-30.464C28.746-.202 32.976-.11 36.16 1.797Z" clip-rule="evenodd"/>
</svg>
