<svg xmlns="http://www.w3.org/2000/svg" fill="currentColor" viewBox="0 0 96 96">
  <g clip-path="url(#a)">
    <path fill="#000" fill-rule="evenodd" d="M26.22 35.09C26.22 15.93 41.752.4 60.91.4c3.183 0 6.275.43 9.216 1.24 7.392 2.032 7.938 10.632 3.718 14.853L61.8 28.536v5.663h5.663l12.043-12.042c4.22-4.221 12.82-3.675 14.854 3.716a34.723 34.723 0 0 1 1.24 9.217c0 19.159-15.531 34.69-34.69 34.69-2.969 0-5.857-.375-8.618-1.08L30.568 90.423c-6.902 6.901-18.09 6.901-24.992 0-6.901-6.901-6.901-18.09 0-24.992l21.725-21.724a34.745 34.745 0 0 1-1.08-8.618Zm27.925 31.756a.09.09 0 0 0 .003-.003L51.005 63.7l3.143 3.143-.003.003ZM60.91 12.4c-12.531 0-22.69 10.159-22.69 22.69 0 2.611.439 5.107 1.242 7.426 1 2.891.109 5.892-1.82 7.82l-23.58 23.582a5.672 5.672 0 0 0 8.02 8.02l23.581-23.58c1.929-1.929 4.93-2.82 7.821-1.82a22.65 22.65 0 0 0 7.426 1.242c12.531 0 22.69-10.159 22.69-22.69v-.056l-8.47 8.47a9.2 9.2 0 0 1-6.506 2.695H59a9.2 9.2 0 0 1-9.2-9.2v-9.623a9.2 9.2 0 0 1 2.695-6.505l8.47-8.47-.056-.001Z" clip-rule="evenodd"/>
  </g>
  <defs>
    <clipPath id="a">
      <rect width="96" height="96" fill="#fff"/>
    </clipPath>
  </defs>
</svg>
