<svg xmlns="http://www.w3.org/2000/svg" fill="currentColor" viewBox="0 0 120 120">
  <path fill="#000" fill-rule="evenodd" d="M44.429 3.533C47.792 5.55 50 9.298 50 13.557V35.47l10 6.45 10-6.45V13.557c0-4.259 2.207-8.008 5.571-10.024 3.493-2.092 8.119-2.196 11.928.648C98.718 12.558 106 25.96 106 41.06c0 18.818-11.3 34.984-27.459 42.109-.244.107-.406.26-.487.374a.365.365 0 0 0-.054.096V112a6 6 0 1 1-12 0V83.633c0-5.365 3.483-9.585 7.7-11.445C85.666 66.913 94 54.953 94 41.06c0-10.384-4.65-19.68-12-25.924v20.333a12 12 0 0 1-5.495 10.084l-10 6.45a12 12 0 0 1-13.01 0l-10-6.45A12 12 0 0 1 38 35.469V15.136c-7.35 6.244-12 15.54-12 25.924 0 13.328 7.667 24.875 18.86 30.453 3.95 1.968 7.14 6.07 7.14 11.191V112a6 6 0 1 1-12 0V82.711a.358.358 0 0 0-.048-.09 1.171 1.171 0 0 0-.445-.368C24.4 74.724 14 59.113 14 41.06c0-15.1 7.282-28.502 18.501-36.879 3.81-2.844 8.435-2.74 11.928-.648ZM40.002 82.72 40 82.713l.002.006Zm37.996.93.002-.01c0 .006-.001.008-.002.008Z" clip-rule="evenodd"/>
</svg>
