<svg width="96" height="96" viewBox="0 0 96 96" fill="none" xmlns="http://www.w3.org/2000/svg">
<path fill-rule="evenodd" clip-rule="evenodd" d="M48 2C50.4002 2 52.5694 3.43038 53.5149 5.63649L63.9564 30H88C90.5826 30 92.8754 31.6526 93.6921 34.1026C94.5088 36.5527 93.6661 39.2505 91.6 40.8L71.2786 56.041L80.0709 78.0217C81.3015 81.0984 79.805 84.5902 76.7283 85.8209C73.6516 87.0515 70.1598 85.555 68.9291 82.4783L58.4291 56.2283C57.4216 53.7094 58.2296 50.8278 60.4 49.2L70 42H60C57.5998 42 55.4306 40.5696 54.4851 38.3635L48 23.2316L41.5149 38.3635C40.5694 40.5696 38.4002 42 36 42H26L35.6 49.2C37.7704 50.8278 38.5784 53.7094 37.5709 56.2283L31.9601 70.2551L41.5232 64.7905C44.4003 63.1465 48.0654 64.1461 49.7095 67.0232C51.3535 69.9003 50.354 73.5654 47.4768 75.2095L22.9768 89.2095C20.761 90.4757 17.9867 90.2016 16.0614 88.5263C14.1361 86.851 13.4813 84.1412 14.4291 81.7717L24.7214 56.041L4.4 40.8C2.33393 39.2505 1.49121 36.5527 2.3079 34.1026C3.12458 31.6526 5.41742 30 8 30H32.0436L42.4851 5.63648C43.4306 3.43038 45.5999 2 48 2Z" fill="black"/>
</svg>
