<svg xmlns="http://www.w3.org/2000/svg" fill="currentColor" viewBox="0 0 96 96">
  <g clip-path="url(#a)">
    <path fill="#000" d="M54 6a6 6 0 0 0-12 0v8a6 6 0 0 0 12 0V6Zm0 76a6 6 0 0 0-12 0v8a6 6 0 0 0 12 0v-8Z"/>
    <path fill="#000" fill-rule="evenodd" d="M28 48c0-11.046 8.954-20 20-20s20 8.954 20 20-8.954 20-20 20-20-8.954-20-20Zm20-8a8 8 0 1 0 0 16 8 8 0 0 0 0-16Z" clip-rule="evenodd"/>
    <path fill="#000" d="M81.941 14.059a6 6 0 0 1 0 8.485l-5.657 5.657a6 6 0 1 1-8.485-8.485l5.657-5.657a6 6 0 0 1 8.485 0Zm-53.74 53.74a6 6 0 0 1 0 8.485l-5.657 5.657a6 6 0 1 1-8.485-8.485l5.657-5.657a6 6 0 0 1 8.485 0ZM90 54a6 6 0 0 0 0-12h-8a6 6 0 0 0 0 12h8Zm-76 0a6 6 0 0 0 0-12H6a6 6 0 0 0 0 12h8Zm67.941 27.941a6 6 0 0 1-8.485 0l-5.657-5.657a6 6 0 1 1 8.485-8.485l5.657 5.657a6 6 0 0 1 0 8.485Zm-53.74-53.74a6 6 0 0 1-8.485 0l-5.657-5.657a6 6 0 1 1 8.485-8.485l5.657 5.657a6 6 0 0 1 0 8.485Z"/>
  </g>
  <defs>
    <clipPath id="a">
      <rect width="96" height="96" fill="#fff"/>
    </clipPath>
  </defs>
</svg>
