<svg width="96" height="96" viewBox="0 0 96 96" fill="none" xmlns="http://www.w3.org/2000/svg">
<path fill-rule="evenodd" clip-rule="evenodd" d="M88.2426 23.7574C89.5916 25.1063 90.1639 26.9377 89.9597 28.6961C89.8092 29.9921 89.2369 31.2485 88.2426 32.2428L70.2426 50.2428C67.8995 52.5859 64.1005 52.5859 61.7573 50.2428C59.4142 47.8996 59.4142 44.1006 61.7573 41.7575L69.5147 34.0001L32 34.0001C28.6863 34.0001 26 31.3138 26 28.0001C26 24.6864 28.6863 22.0001 32 22.0001L69.5148 22.0001L61.7574 14.2426C59.4142 11.8995 59.4142 8.10051 61.7574 5.75736C64.1005 3.41421 67.8995 3.41421 70.2426 5.75736L88.2426 23.7574ZM7.75736 72.2428C6.40843 70.8938 5.83607 69.0624 6.04027 67.304C6.19076 66.008 6.76312 64.7516 7.75737 63.7574L25.7574 45.7574C28.1005 43.4142 31.8995 43.4142 34.2427 45.7574C36.5858 48.1005 36.5858 51.8995 34.2427 54.2426L26.4853 62L64 62C67.3137 62 70 64.6863 70 68C70 71.3137 67.3137 74 64 74H26.4852L34.2426 81.7575C36.5858 84.1006 36.5858 87.8996 34.2426 90.2428C31.8995 92.5859 28.1005 92.5859 25.7574 90.2428L7.75736 72.2428Z" fill="black"/>
</svg>
